<svg width="194" height="56" viewBox="0 0 194 56" fill="none" xmlns="http://www.w3.org/2000/svg">
<path d="M0 35.704C0.0989825 35.55 0.139311 35.4346 0.219963 35.3667C1.75419 34.069 3.4204 32.9893 5.35972 32.3936C7.00577 31.8877 8.64631 31.8602 10.2722 32.4926C10.9632 32.762 11.5791 33.1506 12.1474 33.6199C12.2537 33.7079 12.3288 33.8325 12.459 33.9901C12.0942 34.2211 11.7386 34.102 11.4087 34.1423C11.0311 34.1899 10.6516 34.2266 10.2759 34.2816C9.92758 34.3329 9.58298 34.3971 9.23837 34.4667C8.89377 34.5364 8.55099 34.6134 8.21005 34.6995C7.84162 34.793 7.47318 34.8938 7.10842 35.0056C6.78214 35.1064 6.4357 35.1688 6.03977 35.4401C6.32022 35.5464 6.49069 35.6545 6.66849 35.671C7.51718 35.7443 8.36403 35.7425 9.20904 35.5867C10.2154 35.4016 11.2125 35.1614 12.2463 35.1229C13.2765 35.0845 14.2938 35.1229 15.3111 35.2806C15.5036 35.3099 15.7034 35.2843 15.9692 35.2843C15.8849 35.0386 15.839 34.8443 15.7547 34.6684C15.0893 33.2716 14.7979 31.7869 14.6787 30.2545C14.4295 27.0669 14.8657 23.9397 15.4816 20.8291C15.6979 19.7367 15.9362 18.6478 16.202 17.5682C16.4238 16.6682 16.4586 15.7792 16.2551 14.8737C15.9472 13.4934 15.4614 12.1773 14.8474 10.907C14.8254 10.8594 14.7649 10.8319 14.7191 10.7916C14.4826 10.8099 14.4789 11.0225 14.435 11.1728C14.1032 12.3203 14.226 13.4329 14.7227 14.5126C14.906 14.9122 15.1022 15.3063 15.2616 15.715C15.4981 16.3199 15.6282 16.9505 15.5934 17.6067C15.5769 17.9275 15.5714 18.2538 15.2836 18.5599C15.1223 18.5085 14.9207 18.481 14.7576 18.3857C13.8136 17.8303 13.1812 16.9926 12.7358 16.0138C11.9989 14.3989 11.7423 12.7144 12.0942 10.9565C12.4021 9.41131 13.0382 8.00356 13.8906 6.68746C13.9804 6.54815 14.116 6.43634 14.2718 6.26587C14.3763 6.44367 14.4698 6.55732 14.5156 6.68746C14.7484 7.33268 15.1333 7.87891 15.5641 8.40315C18.0826 11.4588 18.6655 14.9048 17.4961 18.6369C16.6932 21.2012 16.224 23.8041 16.0902 26.484C15.9912 28.4471 16.312 30.3351 16.9022 32.1938C17.782 34.9726 19.0175 37.592 20.3977 40.1509C20.5224 40.3818 20.6415 40.6128 20.768 40.8548C20.4527 41.4652 19.9102 41.7969 19.3731 42.3157C19.3108 42.0352 19.2723 41.9032 19.2539 41.7713C19.2081 41.4523 19.1806 41.1315 19.1275 40.8144C18.8323 39.0529 17.826 37.8431 16.2258 37.1008C15.4999 36.7635 14.7319 36.5747 13.9419 36.494C13.2197 36.4207 12.5488 36.6425 11.9146 36.9651C11.5498 37.1521 11.207 37.3794 10.8533 37.5883C10.5765 37.7515 10.2997 37.9165 10.0192 38.0778C9.02208 38.6497 7.97726 38.7725 6.88662 38.3949C5.58518 37.9439 4.28191 37.5004 2.98964 37.0238C2.21978 36.7397 1.46824 36.4079 0.714876 36.0853C0.482083 35.9863 0.265788 35.8451 0.0018348 35.704H0Z" fill="url(#paint0_linear_2171_888)"/>
<path d="M132.754 40.1655C132.081 40.3507 130.626 40.369 129.79 40.2077C129.537 39.9456 129.599 39.6083 129.597 39.293C129.588 38.327 129.597 37.361 129.59 36.3932C129.588 36.1072 129.555 35.8213 129.537 35.5262C128.859 35.2751 128.211 35.3979 127.579 35.385C126.972 35.3722 126.358 35.3356 125.819 35.4254C125.543 35.748 125.61 36.0523 125.609 36.3382C125.599 37.2749 125.609 38.2115 125.603 39.15C125.603 39.469 125.579 39.7879 125.565 40.1197C125.392 40.1875 125.262 40.2792 125.13 40.2828C124.26 40.3067 123.385 40.3708 122.54 40.2407C122.295 39.8686 122.357 39.5093 122.355 39.1665C122.35 36.2081 122.351 33.2514 122.351 30.2929C122.351 30.029 122.344 29.765 122.359 29.5029C122.37 29.3324 122.414 29.1656 122.441 29.0172C123.143 28.7605 124.756 28.755 125.543 29.0172C125.561 29.272 125.598 29.5561 125.599 29.842C125.607 30.808 125.599 31.774 125.605 32.7418C125.607 33.0278 125.636 33.3156 125.656 33.6455C126.331 33.8508 126.974 33.7537 127.605 33.7592C128.211 33.7647 128.827 33.8197 129.381 33.7005C129.643 33.3944 129.583 33.0901 129.586 32.806C129.595 31.84 129.586 30.874 129.592 29.9062C129.592 29.5891 129.555 29.2628 129.72 28.986C130.387 28.7862 131.821 28.7642 132.693 28.9328C132.942 29.1876 132.897 29.5231 132.9 29.8384C132.909 30.8043 132.904 31.7703 132.904 32.7382C132.904 34.8461 132.906 36.9559 132.902 39.0639C132.902 39.4397 132.946 39.8264 132.75 40.1655H132.754Z" fill="#254540"/>
<path d="M67.7114 13.565C67.9882 13.5485 68.2484 13.5192 68.5087 13.5192C70.0631 13.5155 71.6157 13.5192 73.1701 13.5173C73.8519 13.5173 74.5155 13.6218 75.1515 13.8601C77.1184 14.5933 77.8772 16.7343 76.8178 18.5526C76.343 19.3665 75.6483 19.931 74.7849 20.2976C74.5192 20.4095 74.2534 20.5213 73.9363 20.6551C74.0371 20.8732 74.0957 21.0638 74.2021 21.2251C74.9554 22.3561 75.8811 23.3294 76.9204 24.2019C77.1385 24.3852 77.4098 24.5209 77.5601 24.8508C77.1697 25.1075 76.7518 24.9718 76.365 24.9938C75.9562 25.0176 75.5438 24.9993 75.1332 24.9993H73.9253C72.611 23.894 72.0648 22.4148 71.5772 20.8549C71.3737 20.8439 71.1849 20.8347 71.0328 20.8274C70.7835 21.0877 70.8293 21.3626 70.8275 21.6192C70.8202 22.4111 70.8275 23.203 70.8201 23.993C70.8165 24.2808 70.8623 24.5832 70.6753 24.8362C70.0576 25.0341 68.6774 25.0653 67.6729 24.8948C67.6252 24.7317 67.5501 24.5466 67.5226 24.3559C67.4932 24.1543 67.5079 23.9472 67.5079 23.7419C67.5079 20.7522 67.5061 17.7626 67.5097 14.7729C67.5097 14.399 67.4456 14.0086 67.7114 13.565ZM70.9228 19.3811C71.2894 19.5718 71.6413 19.5168 71.9859 19.5113C72.6917 19.5003 73.2232 19.163 73.5587 18.5654C74.0242 17.7369 74.0902 16.8497 73.808 15.9424C73.6705 15.5006 73.3809 15.1725 72.9556 14.9966C72.2921 14.7216 71.612 14.7051 70.9448 14.9159C70.789 15.6546 70.7725 18.4756 70.921 19.3811H70.9228Z" fill="#254540"/>
<path d="M149.315 20.6677C150.38 20.906 151.42 20.6182 152.433 20.862C152.706 21.2818 152.683 21.6869 152.455 22.1543C151.449 22.2936 150.422 22.1396 149.433 22.2459C149.079 22.6657 149.236 23.1239 149.202 23.5455C149.165 23.9763 149.269 24.4217 149.086 24.825C148.424 25.0431 146.969 25.0669 146.078 24.8671C146.04 24.6985 145.955 24.5079 145.955 24.3154C145.948 22.4696 145.913 20.6219 145.968 18.7779C146.007 17.4618 146.426 16.2428 147.282 15.2127C148.228 14.0762 149.444 13.4548 150.921 13.3192C154.176 13.0222 156.299 15.2677 156.884 17.9988C157.115 19.0821 157.056 20.1563 156.842 21.2268C156.492 22.9736 155.811 24.583 154.759 26.0274C154.415 26.5003 154.046 26.9513 153.59 27.2757C153.156 27.1596 152.748 26.9458 152.367 26.6341C152.42 26.4673 152.457 26.2675 152.541 26.0916C153.377 24.3429 153.714 22.4714 153.826 20.5614C153.898 19.3369 153.953 18.0978 153.672 16.8844C153.581 16.4884 153.463 16.087 153.28 15.7259C152.554 14.3017 150.534 14.4446 149.871 15.6251C149.645 16.0265 149.458 16.4793 149.381 16.9302C149.194 18.0282 149.161 19.1445 149.218 20.2589C149.224 20.3708 149.273 20.4807 149.319 20.6604L149.315 20.6677Z" fill="#254540"/>
<path d="M85.7903 42.6494C85.4347 42.4404 85.0901 42.237 84.7144 42.017C84.7877 41.775 84.8225 41.5771 84.9032 41.3993C85.6602 39.7221 86.0085 37.9551 86.1551 36.1312C86.2449 35.0149 86.2578 33.9059 86.1075 32.8025C86.0323 32.2581 85.9095 31.7027 85.7005 31.1967C85.3816 30.4232 84.7584 30.0419 83.8968 30.0529C83.05 30.0639 82.4433 30.4287 82.0675 31.1857C81.8017 31.7192 81.6587 32.2929 81.6294 32.8758C81.5836 33.7813 81.6019 34.6905 81.6001 35.5978C81.6001 35.7078 81.6532 35.8178 81.6899 35.9552C82.7201 36.2724 83.8015 35.8911 84.8133 36.21C85.0223 36.5913 84.9655 36.9597 84.8665 37.3905C84.6905 37.4308 84.4999 37.5078 84.3074 37.5133C83.6934 37.5316 83.0775 37.517 82.4616 37.528C82.2068 37.5335 81.952 37.572 81.6899 37.5976C81.4333 38.4775 81.7339 39.3481 81.4809 40.14C80.7991 40.3636 79.362 40.3856 78.4565 40.1858C78.418 40.019 78.3392 39.8284 78.3373 39.6359C78.3337 37.7039 78.2878 35.7683 78.3611 33.8381C78.4546 31.3416 80.1245 29.2996 82.4928 28.768C85.0755 28.1888 87.1468 29.1914 88.3969 31.2022C89.3225 32.6925 89.5223 34.3367 89.2767 36.0286C88.9669 38.1567 88.1293 40.0758 86.7875 41.764C86.5345 42.083 86.2834 42.4129 85.7867 42.6549L85.7903 42.6494Z" fill="#254540"/>
<path d="M140.806 20.6734C141.155 21.3186 141.521 21.808 141.926 22.2681C142.333 22.7282 142.751 23.181 143.191 23.6099C143.62 24.0278 144.097 24.3981 144.626 24.8252C143.899 25.0323 142.033 25.069 140.746 24.9278C140.559 24.7262 140.302 24.4897 140.093 24.2148C139.503 23.4394 139.061 22.5816 138.77 21.6486C138.691 21.3993 138.612 21.15 138.519 20.8549H137.826C137.641 21.5532 137.753 22.2278 137.725 22.8932C137.699 23.5329 137.764 24.1763 137.674 24.7647C137.316 25.0745 136.95 24.9791 136.607 24.9956C136.284 25.0103 135.962 25.0048 135.639 24.9956C135.295 24.9865 134.937 25.0433 134.55 24.8362C134.525 24.5979 134.475 24.3431 134.473 24.0901C134.468 20.8659 134.468 17.6416 134.473 14.4192C134.473 14.1644 134.525 13.9114 134.558 13.6053C134.867 13.5723 135.122 13.5228 135.377 13.521C136.99 13.5137 138.601 13.5173 140.214 13.5192C140.896 13.5192 141.558 13.6475 142.19 13.8968C143.97 14.5988 144.724 16.5253 143.901 18.2557C143.439 19.2253 142.682 19.8889 141.705 20.3105C141.439 20.4241 141.169 20.5268 140.803 20.6734H140.806ZM137.754 19.4654C138.161 19.4874 138.447 19.5223 138.731 19.5168C139.872 19.4966 140.619 18.8935 140.794 17.7736C140.874 17.2622 140.847 16.7251 140.81 16.2045C140.777 15.7481 140.524 15.3833 140.141 15.123C139.569 14.7344 138.515 14.674 137.743 15.0131C137.721 16.4355 137.703 17.8854 137.753 19.4654H137.754Z" fill="#254540"/>
<path d="M113.12 17.6636C113.107 17.9477 113.085 18.23 113.085 18.5141C113.082 20.2995 113.085 22.0867 113.082 23.872C113.082 24.1873 113.051 24.5026 113.034 24.8124C112.534 25.0781 112.09 25.036 111.674 24.9022C111.449 24.6437 111.478 24.3724 111.478 24.1121C111.474 20.8622 111.474 17.6123 111.48 14.3605C111.48 14.1332 111.537 13.9059 111.57 13.6493C112.257 13.4239 112.919 13.5247 113.654 13.5687C114.174 14.1534 114.719 14.7638 115.259 15.3742C115.822 16.0102 116.383 16.6463 116.948 17.2823C117.492 17.8964 118.029 18.516 118.583 19.1209C119.131 19.7184 119.622 20.371 120.24 20.9447C120.478 20.6954 120.405 20.4498 120.405 20.2317C120.412 18.3877 120.405 16.5418 120.412 14.6978C120.412 14.3532 120.364 13.9976 120.538 13.6402C120.962 13.4679 121.383 13.4917 121.88 13.6163C121.922 13.8271 121.996 14.0471 122.003 14.2689C122.021 14.8536 122.012 15.4402 122.012 16.0249C122.012 18.6021 122.016 21.1793 122.009 23.7547C122.009 24.1268 122.086 24.5191 121.827 24.8985C121.222 25.08 120.586 24.9975 119.868 24.9572C118.751 23.7877 117.679 22.5138 116.572 21.271C115.485 20.0502 114.4 18.8257 113.315 17.605C113.25 17.6251 113.188 17.6453 113.124 17.6636H113.12Z" fill="#254540"/>
<path d="M99.3327 16.439C98.8542 16.6406 98.4583 16.8074 98.0184 16.9907C97.8717 16.7488 97.7361 16.5637 97.6371 16.3602C96.6546 14.3091 93.7878 14.1862 92.523 16.1622C91.7312 17.4013 91.4837 18.7596 91.6927 20.204C91.7935 20.9024 91.9639 21.5861 92.3507 22.1928C92.9776 23.1735 93.8336 23.7564 95.0397 23.7216C95.7509 23.7014 96.0644 23.4283 96.0956 22.7134C96.1304 21.9234 96.1066 21.1315 96.1139 20.3415C96.1176 20.0244 96.1414 19.7073 96.1579 19.337C96.4273 19.2838 96.6509 19.1995 96.8709 19.205C97.6518 19.2234 98.4455 19.0841 99.2392 19.3205C99.4683 19.9327 99.3381 20.5523 99.3583 21.1553C99.3803 21.7694 99.373 22.3853 99.3601 23.0012C99.3473 23.6098 99.428 24.2256 99.2905 24.8159C98.9935 25.0377 98.7131 25.0083 98.3868 24.9185C98.2163 24.7187 98.0275 24.5006 97.7984 24.2348C97.5638 24.3466 97.3347 24.4584 97.1037 24.5666C95.2359 25.4373 93.357 25.4703 91.5149 24.5373C89.5829 23.5584 88.527 21.9399 88.3474 19.7934C88.1458 17.4013 89.0275 15.4639 91.0786 14.1844C92.9794 12.9985 95.0104 12.9526 97.0469 13.8746C97.9524 14.2852 98.6508 14.9451 99.1127 15.836C99.1915 15.9863 99.2318 16.1567 99.3345 16.439H99.3327Z" fill="#254540"/>
<path d="M100.729 38.2481C101.147 37.6359 101.662 37.1392 102.285 36.6644C102.432 36.8514 102.57 36.9962 102.674 37.1611C103.01 37.6909 103.453 38.1088 103.965 38.4626C104.874 39.0913 105.869 39.1536 106.908 38.9135C107.104 38.8677 107.302 38.7852 107.473 38.6789C108.246 38.1968 108.292 37.2216 107.535 36.7176C107.202 36.4958 106.797 36.3656 106.41 36.2465C105.598 35.9972 104.769 35.8084 103.963 35.5444C103.437 35.3721 102.925 35.1393 102.432 34.8845C100.093 33.6748 100.577 30.3845 102.271 29.38C102.621 29.1729 102.993 28.9749 103.382 28.8668C104.791 28.4727 106.217 28.4434 107.632 28.8411C108.611 29.1161 109.445 29.655 110.149 30.39C110.23 30.4743 110.301 30.5678 110.365 30.665C110.397 30.7108 110.4 30.7749 110.433 30.8794C110.045 31.4587 109.555 31.9701 108.899 32.3917C108.745 32.1625 108.626 31.9646 108.487 31.7868C108.234 31.466 107.997 31.1232 107.702 30.8464C106.74 29.9464 105.594 29.9116 104.414 30.2709C103.792 30.4597 103.547 30.8574 103.543 31.444C103.539 31.8949 103.719 32.2578 104.117 32.4576C104.454 32.6281 104.819 32.7491 105.182 32.8536C105.856 33.0497 106.553 33.1798 107.214 33.4071C107.904 33.6454 108.595 33.9076 109.229 34.2613C111.562 35.5609 110.952 38.7669 109.227 39.7585C108.633 40.0995 108.003 40.3341 107.33 40.4166C106.162 40.5614 104.991 40.587 103.836 40.2974C102.696 40.0115 101.745 39.3993 100.931 38.5652C100.852 38.4846 100.808 38.3709 100.731 38.2481H100.729Z" fill="#254540"/>
<path d="M172.453 38.2849C172.934 37.6305 173.43 37.1484 174.017 36.6627C174.165 36.8332 174.31 36.9651 174.413 37.1246C174.768 37.6745 175.216 38.1254 175.76 38.4884C176.651 39.0823 177.617 39.1519 178.623 38.9155C178.847 38.8623 179.074 38.7707 179.267 38.646C180.005 38.1731 180.051 37.2419 179.333 36.7433C179.005 36.516 178.601 36.3786 178.215 36.2576C177.404 36.0065 176.574 35.8177 175.767 35.5574C175.241 35.3869 174.721 35.1688 174.237 34.9048C173.216 34.3476 172.6 33.5209 172.604 32.2983C172.607 30.9657 173.084 29.8989 174.275 29.2243C174.552 29.0667 174.858 28.9384 175.166 28.8559C176.55 28.4893 177.943 28.4471 179.331 28.8229C180.313 29.0887 181.153 29.6148 181.862 30.3406C182 30.4818 182.1 30.6596 182.227 30.8337C181.82 31.4551 181.312 31.9244 180.72 32.3973C180.59 32.2561 180.467 32.1462 180.376 32.0142C180.224 31.7997 180.112 31.5541 179.947 31.3525C178.918 30.0968 177.907 29.8787 176.339 30.205C176.145 30.2453 175.951 30.3443 175.784 30.4579C175.087 30.94 175.062 31.9244 175.771 32.3844C176.129 32.6172 176.568 32.7364 176.985 32.8629C177.824 33.1176 178.682 33.3138 179.516 33.5869C180.013 33.75 180.491 33.9847 180.955 34.2321C183.292 35.4822 182.768 38.8696 180.863 39.8136C180.421 40.0318 179.949 40.2132 179.468 40.3214C178.194 40.6073 176.908 40.6055 175.637 40.3012C174.378 40.0006 173.341 39.3279 172.45 38.2849H172.453Z" fill="#254540"/>
<path d="M99.4335 38.8805C99.5857 39.2728 99.5655 39.6962 99.4244 40.193C99.2172 40.2296 98.9954 40.2993 98.7736 40.3011C96.5172 40.3103 94.259 40.3085 92.0007 40.3011C91.8027 40.3011 91.6066 40.2443 91.4544 40.2223C91.2143 39.9584 91.2436 39.6852 91.2436 39.4249C91.24 36.1714 91.24 32.9178 91.2455 29.6642C91.2455 29.4387 91.3041 29.2114 91.3408 28.9475C91.5699 28.9035 91.7642 28.8356 91.9585 28.8356C94.2443 28.8283 96.5319 28.8301 98.8176 28.8356C98.99 28.8356 99.1604 28.8796 99.3382 28.9053C99.6608 29.3507 99.4995 29.8053 99.4885 30.1939C99.1824 30.4854 98.8763 30.4359 98.5903 30.4377C97.6225 30.445 96.6547 30.4377 95.6887 30.4432C95.3734 30.445 95.0563 30.4744 94.8162 30.4854C94.5229 30.7603 94.5431 31.0371 94.5541 31.2937C94.5889 32.0727 94.4257 32.8664 94.697 33.6803C95.8665 33.8856 97.0451 33.6583 98.1944 33.8233C98.506 34.3218 98.4547 34.7874 98.2384 35.297C97.0818 35.5078 95.9013 35.2494 94.7667 35.451C94.4789 35.7736 94.5632 36.1384 94.5504 36.4811C94.5376 36.8331 94.5412 37.185 94.5504 37.5369C94.5596 37.8816 94.5027 38.239 94.7025 38.5653C95.0123 38.7321 95.3404 38.6862 95.6557 38.6881C96.6235 38.6954 97.5914 38.6881 98.5574 38.6936C98.8451 38.6954 99.1476 38.6441 99.4354 38.8805H99.4335Z" fill="#254540"/>
<path d="M79.3288 24.8855C79.1088 24.6472 79.1326 24.3447 79.1326 24.0569C79.129 20.8657 79.129 17.6744 79.1326 14.4831C79.1326 14.1935 79.1125 13.8929 79.3361 13.6106C79.4461 13.5868 79.5872 13.53 79.7265 13.53C82.1278 13.5281 84.5272 13.53 86.9284 13.5373C87.0384 13.5373 87.1484 13.5923 87.2804 13.6253C87.4728 14.0579 87.4325 14.4813 87.3482 14.8809C87.0989 15.1705 86.7909 15.1192 86.5068 15.1228C85.5408 15.132 84.5748 15.1228 83.6088 15.1283C83.2899 15.1283 82.971 15.1503 82.663 15.1632C82.3001 15.6782 82.4614 16.2208 82.4449 16.7304C82.4284 17.2491 82.3826 17.7789 82.5329 18.3471C82.7748 18.3838 82.9966 18.4424 83.2202 18.4479C83.893 18.4608 84.5675 18.4498 85.2402 18.4571C85.5298 18.4608 85.8176 18.4846 86.0962 18.4993C86.3822 19.018 86.3639 19.4817 86.1237 20.006C84.9689 20.16 83.7958 19.9858 82.6117 20.1141C82.5512 20.3029 82.4577 20.4642 82.4559 20.6237C82.4485 21.4926 82.3716 22.3669 82.52 23.2926C82.8225 23.3256 83.0754 23.3732 83.3284 23.3751C84.3237 23.3842 85.319 23.3751 86.3144 23.3824C86.6315 23.3842 86.9596 23.3311 87.2455 23.5015C87.3934 23.9378 87.3977 24.4022 87.2584 24.8946C87.0842 24.9258 86.8899 24.9826 86.6938 24.9936C84.6243 25.0999 80.0015 25.0284 79.3306 24.8873L79.3288 24.8855Z" fill="#254540"/>
<path d="M101.523 24.913C101.483 24.6289 101.424 24.4035 101.422 24.1798C101.417 20.8969 101.417 17.614 101.422 14.3311C101.422 14.1294 101.463 13.9278 101.481 13.7592C101.763 13.4439 102.106 13.5264 102.418 13.5245C103.825 13.5154 105.231 13.5209 106.639 13.5209C107.314 13.5209 107.988 13.5172 108.663 13.5227C108.951 13.5245 109.238 13.5484 109.511 13.5612C109.814 14.0543 109.752 14.4997 109.625 14.9231C109.348 15.1797 109.044 15.1248 108.756 15.1266C107.73 15.1339 106.703 15.1266 105.679 15.1339C105.391 15.1358 105.09 15.0808 104.828 15.2512C104.606 15.9386 104.608 17.6855 104.848 18.393C106.005 18.58 107.215 18.3289 108.388 18.5397C108.599 19.0162 108.562 19.4397 108.467 19.8338C108.269 20.0776 108.025 20.0629 107.794 20.0647C107.09 20.0721 106.386 20.0647 105.682 20.0721C105.396 20.0757 105.11 20.0995 104.852 20.1124C104.603 20.8621 104.604 22.6126 104.856 23.3421C105.116 23.355 105.404 23.3806 105.69 23.3806C106.687 23.3861 107.684 23.3788 108.679 23.3861C108.965 23.388 109.251 23.421 109.53 23.4411C109.796 23.9434 109.752 24.387 109.592 24.8855C109.394 24.924 109.2 24.9955 109.005 24.9955C106.718 25.0029 104.432 25.0029 102.145 24.9974C101.972 24.9974 101.8 24.9534 101.519 24.9167L101.523 24.913Z" fill="#254540"/>
<path d="M185.273 24.9001C185.129 24.0808 185.061 16.6131 185.163 14.265C185.173 14.067 185.222 13.8709 185.257 13.6418C185.448 13.5978 185.613 13.5281 185.777 13.5281C188.149 13.5226 190.521 13.5245 192.893 13.5281C193.007 13.5281 193.121 13.5666 193.24 13.5886C193.571 14.023 193.423 14.4758 193.386 14.8662C193.06 15.187 192.723 15.1192 192.409 15.1228C191.414 15.132 190.419 15.1228 189.423 15.1302C189.137 15.1302 188.851 15.1613 188.593 15.176C188.347 15.911 188.346 17.6524 188.578 18.3783C189.733 18.5982 190.943 18.3031 192.094 18.5487C192.231 18.9544 192.26 19.3895 192.18 19.8538C192.017 20.0738 191.773 20.0591 191.542 20.0628C190.84 20.0701 190.136 20.0628 189.434 20.0701C189.147 20.0738 188.859 20.0958 188.6 20.1068C188.349 20.818 188.342 22.563 188.586 23.3292C188.844 23.3457 189.128 23.3751 189.414 23.3769C190.41 23.3824 191.405 23.3769 192.4 23.3824C192.688 23.3824 192.974 23.4117 193.254 23.4282C193.516 23.9598 193.515 24.4254 193.287 24.8818C192.549 25.0376 188.82 25.0963 185.986 24.9954C185.761 24.9881 185.536 24.9368 185.273 24.902V24.9001Z" fill="#254540"/>
<path d="M142.328 33.838C142.482 34.3934 142.506 34.815 142.309 35.2843C142.08 35.3154 141.855 35.3704 141.629 35.3741C140.955 35.3869 140.282 35.3741 139.608 35.3832C139.32 35.3869 139.034 35.4126 138.772 35.4272C138.543 36.0725 138.508 37.5389 138.676 38.5122C138.909 38.7523 139.217 38.6882 139.501 38.69C140.498 38.6992 141.494 38.69 142.491 38.6973C142.808 38.6992 143.14 38.6423 143.45 38.8751C143.607 39.2784 143.585 39.7018 143.45 40.1821C143.268 40.2224 143.074 40.3012 142.881 40.303C140.596 40.3122 138.31 40.3104 136.024 40.3067C135.854 40.3067 135.683 40.259 135.47 40.2261C135.423 40.0189 135.351 39.8301 135.338 39.6377C135.316 39.3169 135.327 38.9943 135.327 38.6717C135.327 35.7993 135.327 32.9288 135.329 30.0565C135.329 29.7101 135.357 29.3636 135.375 28.9604C135.65 28.9127 135.872 28.8412 136.094 28.8394C138.321 28.8302 140.548 28.8302 142.775 28.8394C142.999 28.8394 143.222 28.9054 143.426 28.9384C143.616 29.4296 143.561 29.8512 143.497 30.2251C143.151 30.4983 142.817 30.4378 142.502 30.4396C141.534 30.4488 140.568 30.4396 139.6 30.4451C139.312 30.4469 139.026 30.4781 138.768 30.4928C138.544 31.1508 138.511 32.6117 138.687 33.6529C138.882 33.6877 139.102 33.7537 139.323 33.7592C140.027 33.7739 140.729 33.7592 141.433 33.7702C141.719 33.7739 142.003 33.8123 142.328 33.838Z" fill="#254540"/>
<path d="M132.53 13.6071C132.677 14.1259 132.701 14.5493 132.539 14.9489C132.224 15.178 131.892 15.123 131.575 15.1249C130.609 15.1322 129.641 15.1249 128.675 15.1304C128.391 15.1322 128.105 15.1689 127.849 15.189C127.64 15.8929 127.618 17.429 127.795 18.351C127.993 18.3821 128.215 18.4426 128.437 18.4481C129.139 18.4628 129.843 18.4481 130.547 18.4573C130.835 18.461 131.135 18.4078 131.436 18.6259C131.604 19.0164 131.573 19.4398 131.469 19.8394C131.274 20.074 131.031 20.0612 130.8 20.063C130.096 20.0685 129.394 20.063 128.69 20.0703C128.404 20.074 128.118 20.1033 127.858 20.118C127.638 20.7889 127.608 22.2865 127.777 23.2066C127.984 23.4248 128.261 23.3734 128.518 23.3753C129.542 23.3826 130.569 23.3753 131.593 23.3808C131.911 23.3808 132.239 23.3459 132.532 23.5237C132.691 23.971 132.682 24.3944 132.528 24.8875C132.319 24.9223 132.097 24.9901 131.874 24.9901C129.647 24.9975 127.42 24.9975 125.194 24.9901C124.996 24.9901 124.798 24.937 124.652 24.9168C124.382 24.6602 124.434 24.3834 124.432 24.1268C124.423 23.1315 124.428 22.1343 124.428 21.139C124.428 18.9999 124.426 16.8626 124.43 14.7235C124.43 14.3788 124.459 14.0324 124.478 13.6365C124.76 13.5907 124.982 13.5228 125.205 13.5228C127.432 13.5155 129.66 13.5155 131.885 13.5228C132.085 13.5228 132.283 13.5723 132.532 13.6053L132.53 13.6071Z" fill="#254540"/>
<path d="M179.169 22.1269C179.281 21.7988 179.402 21.4743 179.505 21.1444C180.196 18.9374 180.881 16.7287 181.573 14.5217C181.668 14.2193 181.783 13.9223 181.886 13.6309C182.544 13.4641 183.143 13.4842 183.717 13.5814C183.895 13.8618 183.767 14.0763 183.691 14.2926C183.257 15.5372 182.821 16.78 182.383 18.0209C181.69 19.9804 180.997 21.9399 180.299 23.8976C180.181 24.2257 180.038 24.5446 179.886 24.9167C178.917 25.0524 177.969 25.023 177.058 24.9442C176.726 24.387 173.183 15.1394 172.882 14.0616C172.846 13.9297 172.86 13.7812 172.853 13.6474C173.555 13.4769 175.148 13.4696 175.995 13.64C176.411 14.4961 176.66 15.4602 176.992 16.3914C177.336 17.3556 177.666 18.327 178.002 19.2949C178.326 20.2315 178.647 21.1682 178.971 22.1049C179.039 22.1122 179.105 22.1195 179.173 22.1269H179.169Z" fill="#254540"/>
<path d="M169.953 36.9357C170.464 37.064 170.879 37.1868 171.269 37.5095C171.207 37.6983 171.174 37.8981 171.08 38.0667C170.673 38.8036 170.079 39.3645 169.344 39.7659C166.005 41.5879 161.332 40.083 160.456 35.7809C159.791 32.5127 161.706 29.4314 164.984 28.7312C166.509 28.4049 168.021 28.557 169.409 29.3672C170.134 29.7907 170.708 30.3644 171.11 31.1031C171.203 31.2754 171.24 31.477 171.306 31.675C170.912 32.0141 170.501 32.2011 169.975 32.2451C169.848 32.0159 169.716 31.7941 169.599 31.565C168.653 29.7155 166.107 29.6037 164.846 31.0921C164.344 31.6842 164.012 32.3679 163.829 33.1176C163.536 34.3145 163.613 35.5041 163.988 36.6699C164.161 37.2033 164.443 37.6799 164.819 38.1052C165.911 39.337 168.241 39.4983 169.403 37.7936C169.583 37.5315 169.748 37.2583 169.953 36.9357Z" fill="#254540"/>
<path d="M25.7885 31.303C26.0157 31.2773 26.2449 31.2516 26.5583 31.2168C26.5162 31.4276 26.5253 31.6091 26.4465 31.7374C26.0744 32.3313 25.7261 32.949 25.2825 33.4861C24.2487 34.7362 23.0041 35.7572 21.6184 36.5967C21.4296 36.7103 21.2114 36.7745 20.9896 36.868C20.7678 36.4427 20.8467 36.0614 20.8925 35.6948C21.1748 33.4439 21.908 31.3726 23.3524 29.5873C23.4074 29.5194 23.4514 29.4424 23.5009 29.371L23.5064 29.3765C21.9978 30.1555 20.8925 31.3176 20.1996 32.8702C20.108 33.0755 20.0291 33.2863 19.899 33.607C19.8037 33.3816 19.7377 33.2826 19.723 33.1781C19.4261 31.2131 19.7139 29.3893 21.0135 27.8074C21.5835 27.1127 22.3131 26.6288 23.1104 26.2475C24.2597 25.6994 25.4952 25.4611 26.7526 25.331C26.8974 25.3163 27.0459 25.3255 27.1907 25.3438C27.2732 25.353 27.3502 25.4007 27.4583 25.441C27.6196 25.7709 27.5445 26.1155 27.4932 26.4583C27.2512 28.0952 26.7984 29.6587 25.9021 31.0702C25.8563 31.1435 25.8306 31.2296 25.794 31.3103L25.7866 31.303H25.7885Z" fill="url(#paint1_linear_2171_888)"/>
<path d="M53.854 5.42812C53.5992 6.07884 52.8018 7.05217 51.9385 7.8257C51.176 8.51124 50.3291 9.06848 49.3595 9.56523C49.5959 9.7082 49.7627 9.81085 49.9735 9.93733C49.8965 10.0491 49.8544 10.1664 49.7719 10.2196C48.3165 11.1636 46.7053 11.6402 44.9859 11.7777C44.9034 11.785 44.8173 11.7428 44.7036 11.7172C44.271 11.2149 43.9832 10.6155 43.7083 9.93549C44.2215 9.13813 44.9877 8.59373 45.7649 8.09515C46.5201 7.6094 47.3413 7.22447 48.201 6.75889C47.8289 6.65991 47.5026 6.72772 47.1782 6.78271C46.8042 6.84504 46.4266 6.90003 46.0582 6.99168C45.7191 7.076 45.38 7.18048 45.0574 7.31612C44.7091 7.46276 44.37 7.64057 44.0437 7.83486C43.7541 8.009 43.4883 8.22346 43.1639 8.45625C43.1639 8.28945 43.14 8.19963 43.1675 8.12998C43.6313 6.97151 44.2857 5.9432 45.2737 5.15683C46.6301 4.07719 48.1735 3.69226 49.8855 3.94888C51.1136 4.13401 52.2666 4.54094 53.3719 5.09818C53.5479 5.18616 53.6982 5.32181 53.8522 5.42812H53.854Z" fill="#85BB25"/>
<path d="M163.55 24.8965C162.696 25.0431 161.323 25.034 160.606 24.8855C160.344 24.5647 160.416 24.1688 160.414 23.7967C160.407 21.9215 160.41 20.0445 160.41 18.1694C160.41 17.4948 160.416 16.8203 160.407 16.1475C160.403 15.8616 160.363 15.5775 160.341 15.2842C159.386 14.9323 158.418 15.308 157.49 15.0129C157.289 14.5565 157.312 14.1147 157.481 13.6143C157.714 13.5813 157.939 13.5245 158.165 13.5227C160.773 13.5172 163.383 13.5172 165.992 13.5227C166.192 13.5227 166.39 13.5703 166.61 13.5997C166.842 14.0671 166.806 14.5107 166.652 14.9891C165.748 15.319 164.782 14.9579 163.875 15.2292C163.666 15.5665 163.721 15.9258 163.719 16.2685C163.713 18.7889 163.719 21.3111 163.713 23.8315C163.713 24.178 163.763 24.5354 163.548 24.8965H163.55Z" fill="#254540"/>
<path d="M147.372 30.544C146.458 30.2819 145.504 30.5807 144.577 30.3515C144.298 29.886 144.333 29.4204 144.555 28.8925C144.813 28.8705 145.07 28.8356 145.327 28.8301C149.753 28.7476 152.926 28.788 153.681 28.9383C153.944 29.3654 153.881 29.8108 153.718 30.3002C152.794 30.6283 151.803 30.2635 150.87 30.544C150.694 30.8959 150.749 31.2534 150.749 31.5962C150.743 34.0854 150.749 36.5764 150.745 39.0657C150.745 39.4139 150.721 39.7604 150.71 40.0537C150.362 40.3964 149.992 40.2883 149.652 40.3048C149.332 40.3213 149.007 40.3139 148.686 40.3066C148.34 40.2974 147.986 40.3524 147.64 40.1875C147.444 39.863 147.501 39.5038 147.499 39.161C147.493 36.6424 147.499 34.122 147.493 31.6035C147.493 31.2589 147.546 30.9033 147.372 30.5422V30.544Z" fill="#254540"/>
<path d="M114.622 40.1435C114.607 39.7641 114.583 39.4158 114.583 39.0694C114.58 36.5801 114.583 34.0909 114.578 31.6017C114.578 31.2589 114.647 30.8978 114.429 30.5385C113.538 30.2819 112.583 30.5862 111.663 30.3516C111.357 29.9208 111.451 29.4699 111.553 29.0391C111.845 28.7568 112.182 28.8338 112.495 28.832C113.931 28.8228 115.366 28.8283 116.801 28.8283C117.797 28.8283 118.794 28.8247 119.789 28.8302C120.106 28.832 120.425 28.8577 120.718 28.8723C121.01 29.3709 120.968 29.8163 120.794 30.3204C119.873 30.6137 118.884 30.2727 117.951 30.5459C117.787 30.907 117.835 31.2607 117.835 31.6053C117.831 34.0946 117.835 36.5838 117.831 39.073C117.831 39.4195 117.808 39.7659 117.797 40.0592C117.441 40.3928 117.073 40.2901 116.732 40.3085C116.411 40.325 116.088 40.3176 115.766 40.3085C115.421 40.3011 115.065 40.3506 114.622 40.1435Z" fill="#254540"/>
<path d="M3.38012 15.911C3.51943 15.8762 3.68257 15.8029 3.84571 15.7974C5.37261 15.7442 6.89217 15.7901 8.38058 16.1823C9.46755 16.4683 10.4867 16.8972 11.3812 17.5937C12.1657 18.206 12.7138 18.985 13.0328 19.9253C13.0767 20.0555 13.0731 20.2003 13.0896 20.3286C12.7908 20.5082 12.602 20.3103 12.4114 20.2095C11.449 19.7054 10.4629 19.26 9.41439 18.9685C9.07895 18.875 8.74535 18.7797 8.28709 18.8054C8.40257 18.9868 8.45023 19.1206 8.54555 19.2013C9.05879 19.6376 9.5647 20.0848 10.1073 20.4807C10.9816 21.1205 11.8871 21.718 12.7725 22.3412C12.9778 22.4861 13.2545 22.5667 13.3352 22.9296C13.2106 22.9755 13.0896 23.0433 12.9594 23.0635C10.3932 23.4814 8.14229 22.827 6.24329 21.038C4.98218 19.8502 4.10233 18.4113 3.49927 16.7982C3.40029 16.5324 3.24082 16.263 3.38196 15.911H3.38012Z" fill="url(#paint2_linear_2171_888)"/>
<path d="M10.1347 26.9092C10.3437 27.1108 10.5416 27.3234 10.7616 27.5122C12.1987 28.7495 13.1372 30.3167 13.8026 32.0673C13.841 32.1699 13.83 32.2927 13.8429 32.4045C13.2765 32.5164 12.6606 32.3697 11.2565 31.763C9.87991 31.1673 8.6023 30.4267 7.59415 29.1601C7.82511 29.0666 7.97358 29.0061 8.15138 28.9328C8.12389 28.8595 8.11656 28.766 8.06523 28.7202C6.96726 27.7102 6.19373 26.4766 5.60717 25.1183C5.51735 24.9094 5.46786 24.6821 5.38904 24.4254C5.57051 24.3283 5.70981 24.2128 5.86745 24.178C7.04975 23.9269 8.23387 23.8169 9.44182 24.0332C11.6268 24.4236 12.985 25.7214 13.6742 27.7835C13.8887 28.4232 13.9272 28.7697 13.8704 29.3856C12.8457 28.163 11.7368 27.1493 10.1347 26.911C10.098 26.8853 10.0632 26.8597 10.1072 26.8908C10.0595 26.8652 10.0999 26.8872 10.1384 26.9073L10.1347 26.9092Z" fill="url(#paint3_linear_2171_888)"/>
<path d="M26.6756 6.1449C26.4465 6.10641 26.2137 6.07891 25.9864 6.02942C24.8371 5.77647 23.7153 5.91944 22.6082 6.26405C22.5367 6.28604 22.4798 6.35937 22.3295 6.47668C24.1167 6.52984 25.7206 6.9276 27.2182 7.71762C27.6526 7.94675 28.1035 8.15388 28.461 8.51682C27.9495 8.98974 26.9359 9.37283 25.4402 9.68445C24.0746 9.96856 22.6595 9.96123 21.7466 9.64595C21.7906 9.49565 21.8346 9.34167 21.8914 9.14738C21.7925 9.10888 21.6935 9.04106 21.5908 9.03189C20.2491 8.92008 19.0338 8.4215 17.8588 7.80378C17.6059 7.6718 17.3749 7.49767 17.1128 7.33086C17.1898 7.16956 17.2209 7.05408 17.2888 6.96792C18.0806 5.9671 19.0301 5.14408 20.1721 4.57035C22.5623 3.37339 24.9379 4.17258 26.5473 5.92494C26.6041 5.98543 26.6261 6.07891 26.6628 6.15773L26.6738 6.14673L26.6756 6.1449Z" fill="#18A078"/>
<path d="M168.349 13.5723C169.407 13.4916 170.36 13.4825 171.276 13.5686C171.577 13.9279 171.496 14.2945 171.498 14.6336C171.506 16.7416 171.502 18.8495 171.502 20.9575C171.502 21.9528 171.506 22.9481 171.5 23.9435C171.5 24.2312 171.471 24.519 171.454 24.8435C171.214 24.9003 171.023 24.9883 170.833 24.9846C170.023 24.9699 169.203 25.1001 168.355 24.8765C168.32 24.6327 168.259 24.4072 168.259 24.1836C168.254 20.9043 168.254 17.6251 168.259 14.3458C168.259 14.1204 168.312 13.8931 168.355 13.5705L168.349 13.5723Z" fill="#254540"/>
<path d="M155.463 28.8706C156.447 28.8138 157.399 28.7753 158.341 28.8962C158.574 29.2683 158.519 29.6276 158.519 29.9686C158.524 32.7474 158.522 35.5281 158.52 38.3069C158.52 38.7157 158.528 39.1263 158.515 39.535C158.509 39.7348 158.464 39.9328 158.44 40.1143C157.813 40.3507 156.447 40.3874 155.479 40.2096C155.25 40.0098 155.28 39.7348 155.278 39.4764C155.27 38.7743 155.274 38.0723 155.274 37.3703C155.274 34.9122 155.272 32.456 155.276 29.9979C155.276 29.6533 155.226 29.2977 155.463 28.8706Z" fill="#254540"/>
<path d="M14.0996 39.1592C13.1079 40.3653 12.1291 41.4504 11.5957 42.8325C11.8853 43.0177 12.0466 42.8325 12.1896 42.7171C13.2326 41.8684 14.2664 41.0087 15.3002 40.149C15.61 39.8905 15.9106 39.6211 16.1837 39.3846C16.4477 39.469 16.4385 39.6266 16.4238 39.7677C16.1177 42.5411 14.7595 44.5959 12.2299 45.824C11.0348 46.4051 9.76819 46.7515 8.44109 46.856C8.27612 46.8688 8.10565 46.8303 7.91685 46.8138C7.89485 46.6617 7.84719 46.5444 7.86919 46.4399C8.27245 44.3759 8.94333 42.4256 10.3218 40.7869C11.0183 39.9584 11.8926 39.3938 12.9503 39.1262C13.2876 39.0419 13.6303 38.9722 14.1014 39.161L14.0996 39.1592Z" fill="url(#paint4_linear_2171_888)"/>
<path d="M52.4478 14.7326C50.5543 14.3073 49.0384 13.5558 47.7406 12.2635C48.2025 11.8346 48.7543 11.8676 49.2418 11.8016C50.6093 11.6183 51.9767 11.5816 53.3258 12.17C53.2635 12.346 53.2176 12.4743 53.1498 12.6686C54.3083 12.9435 55.3274 13.5099 56.2586 14.2358C56.4364 14.3751 56.5812 14.5566 56.7169 14.6941C56.693 14.8114 56.7022 14.8884 56.6674 14.9214C55.4704 16.0945 54.0828 16.8424 52.3561 16.7415C50.9044 16.6572 49.8357 15.8947 49.0384 14.7142C49.0164 14.6812 49.0475 14.6097 49.0604 14.4924C50.0025 14.8554 50.9685 15.0332 51.9675 14.9085C52.0683 14.8957 52.1637 14.837 52.4459 14.7326H52.4478Z" fill="#85BB25"/>
<path d="M18.704 25.5382C19.1311 25.0121 19.7231 24.7849 20.1557 24.3706C20.5938 23.9527 21.0869 23.5861 21.4975 22.9482C21.217 22.972 21.0484 22.9445 20.9183 23.0032C19.9339 23.4486 18.9588 23.9123 17.9781 24.3669C17.6427 24.5227 17.3476 24.7867 16.8746 24.816C16.893 24.6455 16.882 24.5044 16.926 24.3834C17.4997 22.7979 18.528 21.6119 20.0622 20.8934C21.5378 20.2023 23.1014 20.0978 24.6943 20.2811C24.9179 20.3068 25.1342 20.4076 25.389 20.4846C25.3596 20.6624 25.3688 20.8146 25.3102 20.9337C24.6283 22.3066 23.7979 23.5714 22.6193 24.5741C21.8439 25.2321 20.9659 25.6757 19.9358 25.7563C19.538 25.7875 19.1329 25.7912 18.704 25.5382Z" fill="url(#paint5_linear_2171_888)"/>
<path d="M32.6223 5.37133C32.0724 5.67744 31.6307 5.62428 31.2017 5.58579C29.4732 5.43182 28.0746 4.67112 27.0243 3.27987C26.4524 2.52283 26.0381 1.68698 25.732 0.794306C25.6569 0.574345 25.5707 0.348884 25.743 0.0775982C25.9098 0.0537691 26.1078 -0.00671992 26.3058 0.00061212C27.6035 0.0409383 28.8756 0.238902 30.0744 0.76131C30.9836 1.15724 31.7315 1.7548 32.2099 2.64564C32.4134 3.02508 32.4079 3.02874 32.3639 3.57131C31.9551 3.57498 31.682 3.26887 31.3429 3.12406C31.0203 2.98658 30.7105 2.81611 30.3842 2.68597C30.0396 2.5485 29.695 2.38902 29.2752 2.39819C29.2954 2.75379 29.5337 2.8986 29.7262 3.0544C30.43 3.62814 31.1467 4.18721 31.8561 4.75361C32.0797 4.93141 32.3015 5.11287 32.6223 5.37316V5.37133Z" fill="#18A078"/>
<path d="M25.0114 12.4047C24.7548 14.2652 24.3369 15.9498 23.1564 17.3502C22.656 17.9441 22.0548 18.4042 21.2868 18.5985C21.043 18.6608 20.7809 18.7653 20.5151 18.527C20.6324 18.1604 20.9477 17.9166 21.142 17.6013C21.3253 17.3025 21.5361 17.0184 21.7102 16.7141C21.8917 16.3952 22.1116 16.0817 22.1519 15.5923C21.3821 15.9681 20.867 16.518 20.3208 17.0221C19.7947 17.5078 19.3199 18.0522 18.6564 18.6278C18.6234 18.2429 18.5739 18.0467 18.5959 17.8598C18.814 16.0084 19.6462 14.5274 21.2574 13.5302C22.2693 12.9051 23.3746 12.5349 24.5477 12.3644C24.6558 12.3479 24.7695 12.3827 25.0133 12.4047H25.0114Z" fill="url(#paint6_linear_2171_888)"/>
<path d="M37.4024 7.54168C36.9387 8.87978 36.0423 9.62031 34.6804 9.6973C34.2441 9.72113 33.7987 9.6918 33.3679 9.62398C32.9427 9.55615 32.5944 9.34353 32.5394 8.77346C32.7997 7.9981 33.3661 7.37487 33.9912 6.79381C34.6401 6.19075 35.4283 5.92313 36.4272 5.94146C36.2348 5.63901 36.112 5.45205 35.9946 5.26325C35.2724 4.09379 35.3403 2.85834 35.738 1.61739C35.8902 1.13897 36.3521 0.946508 36.8085 1.14081C38.4894 1.85751 39.3857 3.54388 38.713 5.3054C38.6965 5.3494 38.625 5.37506 38.537 5.43922C38.1191 4.87465 38.0036 4.05529 37.1824 3.73818C37.0908 3.87383 36.935 4.00214 36.924 4.14144C36.891 4.54654 36.9075 4.95714 36.9222 5.3659C36.9295 5.56569 36.9735 5.76549 37.0028 5.97445C36.3576 6.55918 35.4209 6.83964 35.1808 7.81113C35.5566 8.20706 35.9635 7.99076 36.3411 7.89911C36.7022 7.81113 37.0486 7.66449 37.4024 7.54351V7.54168Z" fill="#FA6784"/>
<path d="M40.2512 7.4572C40.2732 7.58368 40.2696 7.62034 40.2842 7.63867C41.2209 8.64316 41.2319 9.85844 41.0651 11.1086C41.0339 11.3377 40.9698 11.5705 40.8799 11.7849C40.6985 12.212 40.2897 12.4118 39.8718 12.2469C38.8655 11.8509 37.8573 10.8996 37.7418 9.66048C37.6887 9.08491 37.674 8.50202 38.0094 7.88613C38.5465 8.48002 38.6107 9.39102 39.485 9.63482C40.0349 8.90894 39.6555 8.15558 39.6115 7.38205C40.2549 6.81565 41.2007 6.51137 41.4793 5.5747C41.3437 5.31258 41.1292 5.29608 40.9294 5.34007C40.5023 5.43356 40.0808 5.56003 39.6592 5.67735C39.5015 5.72134 39.3457 5.7745 39.0414 5.86982C39.2082 5.53987 39.2816 5.32541 39.4099 5.15127C40.4254 3.75269 41.5545 3.41908 43.36 3.76002C44.0382 3.88833 44.2435 4.4254 43.9007 5.03029C43.5378 5.67185 43.0961 6.25475 42.4948 6.70017C41.9431 7.11076 41.3492 7.40771 40.6398 7.40588C40.5262 7.40588 40.4107 7.43337 40.2549 7.45537L40.2512 7.4572Z" fill="#FA6784"/>
<path d="M49.7057 17.053C47.4126 17.7349 43.906 16.4903 42.0272 13.4787C41.9557 12.7106 42.1372 11.2094 42.3938 10.5972C42.5441 10.6393 42.7237 10.6485 42.8557 10.7328C43.6421 11.2296 44.2836 11.8839 44.6081 12.7583C44.9618 13.7115 45.5979 14.4208 46.3934 14.9854C47.1779 15.5445 48.0211 16.0247 48.8386 16.5361C49.0788 16.6864 49.3262 16.8276 49.7057 17.053Z" fill="url(#paint7_linear_2171_888)"/>
<path d="M53.927 17.6029C56.079 17.0677 58.7955 19.7402 58.4729 21.9967C58.4215 22.0205 58.3684 22.0682 58.3171 22.0645C57.2173 21.993 56.1816 21.6997 55.2376 21.1297C54.5649 20.7227 54.0626 20.1655 53.8427 19.3901C53.8134 19.2856 53.8262 19.1683 53.8115 18.963C54.0242 19.0382 54.1891 19.062 54.3119 19.1482C54.7904 19.4799 55.2724 19.8007 55.8132 19.9785C56.0148 19.7897 55.8883 19.6614 55.7985 19.5679C55.3109 19.062 54.8087 18.5708 54.3174 18.0685C54.1836 17.9311 54.0681 17.7734 53.927 17.6029Z" fill="#85BB25"/>
<path d="M41.1032 36.4152C40.9327 36.5747 40.7513 36.7213 40.5955 36.8936C39.7028 37.8853 38.6506 38.668 37.4848 39.3095C35.749 40.2608 33.8995 40.9024 31.984 41.3716C30.1583 41.8189 28.3693 42.3743 26.6554 43.1533C24.9067 43.947 23.2918 44.9405 21.9464 46.3354C20.3187 48.02 19.3949 50.0308 19.1272 52.3532C19.0979 52.6062 19.0466 52.8591 19.0008 53.1396C18.4949 53.1689 18.1814 52.8701 17.8258 52.7015C17.4849 52.5402 17.1623 52.3404 16.8543 52.1717C16.682 51.6255 16.7535 51.1233 16.8103 50.6357C17.0083 48.9365 17.4262 47.2959 18.1961 45.7562C19.2959 43.5621 20.9456 41.9637 23.2863 41.17C25.1725 40.5303 27.0843 39.9639 28.9888 39.3773C30.7265 38.8421 32.4569 38.2885 34.1286 37.5681C35.7765 36.8588 37.3565 36.0303 38.7441 34.8718C40.4726 33.4292 41.6219 31.6475 42.005 29.4058C42.0399 29.2041 42.0894 29.0043 42.1425 28.8064C42.1553 28.7587 42.214 28.7257 42.2507 28.6854C42.6998 29.1711 42.9215 29.7394 43.1158 31.2736C43.2277 32.1571 43.2295 33.0553 43.2918 34.1056C43.5796 33.5227 43.6658 33.0424 43.7134 32.5549C43.8564 31.0775 43.7482 29.6202 43.2313 28.2198C41.8126 24.3723 39.9466 20.7668 37.3529 17.5663C36.704 16.7653 35.9543 16.0743 35.1386 15.4401C34.4475 14.9011 33.7877 14.3146 33.1681 13.695C32.5211 13.0461 32.0665 12.2543 31.742 11.3928C31.6632 11.182 31.5422 10.9877 31.4377 10.7824C31.3039 10.8172 31.2049 10.8154 31.1426 10.863C30.4992 11.3469 30.0025 11.9665 29.6414 12.674C29.5039 12.9417 29.5058 13.2991 29.5039 13.6162C29.4929 14.936 29.5039 16.2539 29.5057 17.5737C29.5057 17.867 29.4984 18.1602 29.4966 18.4535C29.4893 19.4708 29.3316 20.4423 28.5636 21.2819C28.7176 21.357 28.8055 21.4175 28.9027 21.4468C29.3224 21.5715 29.5332 21.8849 29.5827 22.2827C29.6304 22.6566 29.6139 23.0397 29.5956 23.4173C29.5772 23.7931 29.4581 24.1707 29.6267 24.5483C29.9823 24.9075 30.6111 24.7591 30.908 25.2008C30.9722 25.6279 30.4901 25.5784 30.3746 25.89C30.4168 25.9652 30.4497 26.088 30.5304 26.1577C31.0656 26.6232 31.1683 27.252 31.2123 27.9064C31.2324 28.2216 31.2581 28.5387 31.2819 28.865C31.4781 28.9237 31.6119 28.9933 31.7494 29.0007C32.5999 29.0428 33.4449 29.0263 34.2844 28.8357C36.3044 28.3756 37.7635 27.2153 38.6873 25.3731C39.0979 24.5556 39.3563 23.6868 39.4975 22.7813C39.5286 22.587 39.5891 22.3982 39.6478 22.1599C39.7669 22.2277 39.8641 22.2479 39.8952 22.3047C40.2893 23.0415 40.4983 23.8352 40.5001 24.6656C40.5038 25.7342 40.139 26.6911 39.4003 27.4628C38.9567 27.9247 38.4618 28.3499 37.9394 28.7184C36.9276 29.4332 35.8021 29.941 34.6437 30.3626C33.6942 30.709 32.7135 30.8612 31.7072 30.6284C31.0143 30.4689 30.3599 30.2306 29.8559 29.6367C29.8284 29.4241 29.7899 29.1931 29.7715 28.9622C29.7074 28.1685 29.6506 27.3748 28.9852 26.7846C29.075 26.4143 29.1556 26.0788 29.2326 25.7654C29.163 25.3621 28.7744 25.3145 28.5159 25.045C28.5398 24.8562 28.5617 24.6289 28.5984 24.4035C28.7322 23.5878 28.4408 22.9701 27.7369 22.5411C27.5114 22.4037 27.2823 22.2717 27.0678 22.1214C26.9762 22.0572 26.9139 21.9509 26.8717 21.9032C26.7764 21.5935 26.8955 21.3918 27.0404 21.2012C28.274 19.5845 28.4903 17.7203 28.3473 15.7737C28.2831 14.8975 28.1915 14.0231 28.1237 13.1451C28.0265 11.8712 28.34 10.7054 29.0805 9.65691C29.799 8.64142 30.6917 7.79823 31.6907 7.06503C31.753 7.0192 31.8502 7.0192 31.9748 6.98438C31.9748 7.12735 31.9876 7.23917 31.9711 7.34731C31.951 7.49212 31.9052 7.63326 31.874 7.77624C31.4854 9.60008 32.3652 10.6101 34.0846 10.8594C34.7427 10.9547 35.4282 10.8667 36.1009 10.8539C36.3025 10.8502 36.5023 10.8117 36.6948 10.7897C37.0138 11.3084 37.285 11.8235 37.6296 12.2854C37.9871 12.762 38.4967 13.081 39.0667 13.2588C39.6221 13.4311 40.1959 13.5484 40.7696 13.6914C40.8722 13.8453 40.9767 13.9846 41.0647 14.1349C42.445 16.45 44.5291 17.746 47.1283 18.2464C47.9 18.3949 48.6992 18.4077 49.4874 18.4554C49.9548 18.4847 50.4241 18.4609 50.941 18.4609C51.1499 18.6277 51.3882 18.7963 51.6008 18.9943C54.2825 21.5036 55.9084 24.5904 56.6013 28.1813C57.2025 31.2993 56.8671 34.3695 56.0807 37.4087C54.9388 41.8226 52.7923 45.6682 49.5185 48.8613C47.6104 50.7237 45.4383 52.1864 42.9674 53.2184C40.5808 54.2155 38.1521 55.0624 35.6023 55.5335C32.9023 56.0321 30.1895 56.1237 27.4601 55.8433C26.7892 55.7736 26.1202 55.7003 25.453 55.605C25.1102 55.5573 24.7766 55.4583 24.4521 55.385C24.3385 54.9304 24.5676 54.6426 24.7473 54.3548C25.5354 53.0901 26.6591 52.2304 28.032 51.6823C29.1905 51.2186 30.4058 51.0518 31.643 50.9986C33.696 50.9106 35.7325 50.687 37.747 50.2782C38.6671 50.0913 39.5763 49.8585 40.414 49.4149C40.6596 49.2847 40.9456 49.1839 41.0739 48.8027C40.8631 48.777 40.6999 48.7385 40.5386 48.7385C37.6645 48.7477 34.7903 48.7275 31.918 48.7917C30.4223 48.8247 28.9448 49.0721 27.5334 49.6238C25.464 50.434 23.9664 51.8326 23.0792 53.8764C22.9766 54.1147 22.8611 54.3457 22.7603 54.5601C22.0344 54.5473 20.557 54.1092 19.7633 53.673C19.7761 53.4695 19.7596 53.2349 19.8091 53.0149C20.1959 51.3029 20.8888 49.732 22.0032 48.3646C22.9656 47.1823 24.1442 46.2786 25.5611 45.7122C27.275 45.0267 29.0017 44.3723 30.7192 43.6922C32.8198 42.86 34.8948 41.9765 36.8286 40.7924C37.8569 40.1619 38.8376 39.4671 39.6661 38.5836C40.0456 38.1785 40.3902 37.7368 40.7054 37.2804C40.8832 37.0237 40.9657 36.7011 41.0904 36.4079C41.149 36.2905 41.2095 36.1732 41.2682 36.0577L41.2718 36.0614C41.215 36.1787 41.1564 36.2979 41.0995 36.4152H41.1032ZM36.429 44.7792C36.4694 44.858 36.4767 44.8947 36.4968 44.9057C36.5463 44.9332 36.6013 44.9625 36.6582 44.9698C38.1154 45.1476 39.5653 45.2393 41.0372 45.0322C43.7574 44.6509 46.0652 43.4979 47.9385 41.5C49.8687 39.4397 51.0418 36.9706 51.7017 34.2467C51.7567 34.0213 51.7878 33.7848 51.7952 33.552C51.8611 31.543 51.6467 29.5652 51.0161 27.6552C49.7147 23.7051 47.0751 21.0784 43.103 19.8118C42.9839 19.7733 42.8336 19.6743 42.7327 19.9034C42.9417 20.0977 43.158 20.2902 43.367 20.49C46.4171 23.4063 48.4022 26.8505 48.7633 31.1379C49.0181 34.1661 48.2043 36.8148 46.155 39.073C45.0827 40.2535 43.8417 41.2287 42.4835 42.059C40.7989 43.0892 39.0026 43.8719 37.1384 44.5079C36.9001 44.5886 36.6691 44.6857 36.4309 44.7774L36.429 44.7792Z" fill="url(#paint8_linear_2171_888)"/>
<path d="M30.6474 17.4418C30.7867 17.638 30.8967 17.7974 31.0122 17.9551C31.2963 18.3455 31.6849 18.4903 32.1578 18.4628C32.7022 18.4316 33.1769 18.2172 33.6242 17.9312C34.0623 17.6508 34.4857 17.3447 34.9073 17.0569C35.0778 17.1907 34.9751 17.297 34.9183 17.3832C34.4545 18.0705 33.9065 18.6699 33.1458 19.0365C32.5739 19.3115 31.9837 19.4306 31.3659 19.1923C30.673 18.9266 30.4018 18.3052 30.6492 17.4418H30.6474Z" fill="url(#paint9_linear_2171_888)"/>
<path d="M33.5897 15.0039C33.4889 15.057 33.4394 15.1084 33.3918 15.1047C32.4129 15.0479 31.4341 14.9837 30.3728 14.9159C30.8311 14.3257 31.4543 14.3 32.0243 14.3018C32.6072 14.3018 33.2286 14.388 33.5897 15.0039Z" fill="url(#paint10_linear_2171_888)"/>
<defs>
<linearGradient id="paint0_linear_2171_888" x1="10.384" y1="7.08889" x2="10.384" y2="35.8232" gradientUnits="userSpaceOnUse">
<stop stop-color="#1C9F75"/>
<stop offset="1" stop-color="#85BB25"/>
</linearGradient>
<linearGradient id="paint1_linear_2171_888" x1="23.5852" y1="7.08889" x2="23.5852" y2="35.8232" gradientUnits="userSpaceOnUse">
<stop stop-color="#1C9F75"/>
<stop offset="1" stop-color="#85BB25"/>
</linearGradient>
<linearGradient id="paint2_linear_2171_888" x1="8.32742" y1="7.08877" x2="8.32742" y2="35.823" gradientUnits="userSpaceOnUse">
<stop stop-color="#1C9F75"/>
<stop offset="1" stop-color="#85BB25"/>
</linearGradient>
<linearGradient id="paint3_linear_2171_888" x1="9.63796" y1="7.08885" x2="9.63796" y2="35.8231" gradientUnits="userSpaceOnUse">
<stop stop-color="#1C9F75"/>
<stop offset="1" stop-color="#85BB25"/>
</linearGradient>
<linearGradient id="paint4_linear_2171_888" x1="12.1456" y1="7.08883" x2="12.1456" y2="35.8231" gradientUnits="userSpaceOnUse">
<stop stop-color="#1C9F75"/>
<stop offset="1" stop-color="#85BB25"/>
</linearGradient>
<linearGradient id="paint5_linear_2171_888" x1="21.1309" y1="7.08897" x2="21.1309" y2="35.8232" gradientUnits="userSpaceOnUse">
<stop stop-color="#1C9F75"/>
<stop offset="1" stop-color="#85BB25"/>
</linearGradient>
<linearGradient id="paint6_linear_2171_888" x1="21.8018" y1="7.089" x2="21.8018" y2="35.8233" gradientUnits="userSpaceOnUse">
<stop stop-color="#1C9F75"/>
<stop offset="1" stop-color="#85BB25"/>
</linearGradient>
<linearGradient id="paint7_linear_2171_888" x1="36.409" y1="3.46493" x2="64.2084" y2="38.2848" gradientUnits="userSpaceOnUse">
<stop stop-color="#189873"/>
<stop offset="1" stop-color="#135249"/>
</linearGradient>
<linearGradient id="paint8_linear_2171_888" x1="22.1957" y1="13.1836" x2="43.9572" y2="52.2139" gradientUnits="userSpaceOnUse">
<stop stop-color="#189873"/>
<stop offset="1" stop-color="#135249"/>
</linearGradient>
<linearGradient id="paint9_linear_2171_888" x1="28.314" y1="9.77067" x2="50.0773" y2="48.8028" gradientUnits="userSpaceOnUse">
<stop stop-color="#189873"/>
<stop offset="1" stop-color="#135249"/>
</linearGradient>
<linearGradient id="paint10_linear_2171_888" x1="28.9046" y1="9.44252" x2="50.6679" y2="48.4746" gradientUnits="userSpaceOnUse">
<stop stop-color="#189873"/>
<stop offset="1" stop-color="#135249"/>
</linearGradient>
</defs>
</svg>
