<svg width="32" height="32" viewBox="0 0 32 32" fill="none" xmlns="http://www.w3.org/2000/svg">
<path d="M3 5H7L10 22H26M12 26C12 26.5523 11.5523 27 11 27C10.4477 27 10 26.5523 10 26C10 25.4477 10.4477 25 11 25C11.5523 25 12 25.4477 12 26ZM26 26C26 26.5523 25.5523 27 25 27C24.4477 27 24 26.5523 24 26C24 25.4477 24.4477 25 25 25C25.5523 25 26 25.4477 26 26ZM9.11938 16.6667H24.7094C24.825 16.6667 24.9371 16.6267 25.0266 16.5535C25.116 16.4802 25.1773 16.3782 25.2 16.2648L27 7.26479C27.0145 7.19222 27.0128 7.11733 26.9948 7.04552C26.9769 6.97372 26.9432 6.90679 26.8963 6.84956C26.8494 6.79234 26.7903 6.74625 26.7234 6.71462C26.6565 6.68299 26.5834 6.66662 26.5094 6.66667H7.29412L9.11938 16.6667Z" stroke="#14544B" stroke-width="1.5" stroke-linecap="round" stroke-linejoin="round"/>
</svg>
