<svg width="149" height="43" viewBox="0 0 149 43" fill="none" xmlns="http://www.w3.org/2000/svg">
<path d="M0 27.4158C0.0760045 27.2976 0.106971 27.2089 0.168901 27.1568C1.34697 26.1603 2.62638 25.3313 4.1155 24.8739C5.37943 24.4854 6.63913 24.4643 7.88758 24.9499C8.4182 25.1568 8.89112 25.4552 9.32744 25.8155C9.40907 25.8831 9.46678 25.9788 9.56671 26.0998C9.28662 26.2772 9.01357 26.1857 8.76022 26.2166C8.47028 26.2532 8.17893 26.2814 7.89039 26.3236C7.62297 26.363 7.35836 26.4123 7.09375 26.4658C6.82914 26.5192 6.56594 26.5784 6.30415 26.6445C6.02124 26.7163 5.73834 26.7937 5.45825 26.8796C5.20772 26.957 4.9417 27.0048 4.63768 27.2131C4.85303 27.2948 4.98392 27.3778 5.12045 27.3905C5.77212 27.4468 6.42238 27.4454 7.07123 27.3257C7.84394 27.1836 8.60962 26.9992 9.40344 26.9696C10.1945 26.9401 10.9756 26.9696 11.7568 27.0907C11.9046 27.1132 12.058 27.0935 12.2621 27.0935C12.1973 26.9049 12.1621 26.7557 12.0974 26.6206C11.5865 25.5481 11.3627 24.408 11.2712 23.2313C11.0798 20.7837 11.4147 18.3825 11.8877 15.994C12.0537 15.1552 12.2367 14.3191 12.4408 13.4901C12.6111 12.799 12.6379 12.1164 12.4816 11.4211C12.2452 10.3613 11.8722 9.35068 11.4007 8.37529C11.3838 8.33869 11.3373 8.31758 11.3021 8.28662C11.1206 8.30069 11.1178 8.46396 11.084 8.57937C10.8292 9.46046 10.9235 10.3148 11.305 11.1438C11.4457 11.4507 11.5963 11.7533 11.7188 12.0671C11.9003 12.5316 12.0003 13.0158 11.9735 13.5197C11.9609 13.766 11.9566 14.0165 11.7357 14.2516C11.6118 14.2121 11.457 14.191 11.3317 14.1178C10.6068 13.6914 10.1213 13.0482 9.77924 12.2966C9.21343 11.0566 9.01638 9.76307 9.28662 8.41329C9.52308 7.22678 10.0115 6.14582 10.666 5.13524C10.7349 5.02828 10.8391 4.94242 10.9587 4.81152C11.0389 4.94805 11.1107 5.03531 11.1459 5.13524C11.3247 5.63068 11.6202 6.05011 11.951 6.45265C13.8849 8.79894 14.3325 11.445 13.4345 14.3107C12.818 16.2798 12.4577 18.2784 12.355 20.3361C12.2789 21.8436 12.5253 23.2933 12.9785 24.7205C13.6541 26.8542 14.6027 28.8655 15.6626 30.8304C15.7583 31.0077 15.8497 31.1851 15.9469 31.3709C15.7048 31.8396 15.2882 32.0943 14.8758 32.4926C14.8279 32.2773 14.7984 32.1759 14.7843 32.0746C14.7491 31.8297 14.728 31.5834 14.6872 31.3399C14.4606 29.9873 13.6878 29.0584 12.4591 28.4883C11.9017 28.2293 11.312 28.0844 10.7054 28.0224C10.1508 27.9661 9.63568 28.1364 9.14869 28.3842C8.8686 28.5277 8.6054 28.7023 8.33375 28.8627C8.12122 28.988 7.90869 29.1147 7.69334 29.2385C6.92767 29.6777 6.1254 29.772 5.28794 29.482C4.28862 29.1358 3.2879 28.7952 2.29562 28.4292C1.70447 28.211 1.1274 27.9563 0.548922 27.7086C0.370171 27.6326 0.204087 27.5242 0.00140886 27.4158H0Z" fill="white"/>
<path d="M101.936 30.8418C101.419 30.9839 100.302 30.998 99.6601 30.8741C99.4659 30.6729 99.5137 30.4139 99.5123 30.1718C99.5053 29.4301 99.5123 28.6883 99.5067 27.9452C99.5053 27.7256 99.48 27.506 99.4659 27.2794C98.9451 27.0866 98.4483 27.1809 97.9627 27.171C97.4968 27.1612 97.0253 27.133 96.6115 27.202C96.399 27.4497 96.451 27.6834 96.4496 27.9029C96.4426 28.6222 96.4496 29.3414 96.4454 30.062C96.4454 30.3069 96.4271 30.5518 96.4158 30.8066C96.2835 30.8587 96.1836 30.929 96.0823 30.9318C95.4137 30.9501 94.7423 30.9994 94.0935 30.8995C93.9049 30.6138 93.9527 30.3379 93.9513 30.0747C93.9471 27.803 93.9485 25.5327 93.9485 23.261C93.9485 23.0583 93.9429 22.8557 93.9541 22.6544C93.9626 22.5235 93.9964 22.3954 94.0175 22.2814C94.5565 22.0844 95.7951 22.0801 96.399 22.2814C96.413 22.4771 96.4412 22.6952 96.4426 22.9148C96.4482 23.6565 96.4426 24.3983 96.4468 25.1414C96.4482 25.361 96.4707 25.582 96.4862 25.8353C97.0042 25.993 97.4982 25.9184 97.9824 25.9226C98.4483 25.9268 98.9212 25.969 99.3462 25.8775C99.5475 25.6425 99.5011 25.4089 99.5039 25.1907C99.5109 24.4489 99.5039 23.7072 99.5081 22.964C99.5081 22.7206 99.48 22.47 99.6066 22.2575C100.119 22.1041 101.22 22.0872 101.89 22.2167C102.081 22.4123 102.046 22.6699 102.049 22.912C102.056 23.6537 102.051 24.3955 102.051 25.1386C102.051 26.7572 102.053 28.3773 102.05 29.9959C102.05 30.2844 102.084 30.5814 101.933 30.8418H101.936Z" fill="white"/>
<path d="M51.9926 10.4155C52.2051 10.4028 52.405 10.3803 52.6048 10.3803C53.7984 10.3775 54.9905 10.3803 56.1841 10.3789C56.7077 10.3789 57.2172 10.4591 57.7056 10.6421C59.2158 11.2051 59.7985 12.8491 58.985 14.2453C58.6204 14.8702 58.087 15.3037 57.4241 15.5852C57.22 15.6711 57.0159 15.7569 56.7724 15.8597C56.8498 16.0272 56.8949 16.1735 56.9765 16.2974C57.555 17.1658 58.2658 17.9132 59.0638 18.5832C59.2313 18.7239 59.4396 18.8281 59.555 19.0814C59.2552 19.2785 58.9343 19.1743 58.6373 19.1912C58.3235 19.2095 58.0068 19.1954 57.6915 19.1954H56.764C55.7548 18.3467 55.3354 17.2109 54.961 16.0131C54.8047 16.0046 54.6598 15.9976 54.5429 15.992C54.3515 16.1918 54.3867 16.403 54.3853 16.6C54.3797 17.208 54.3853 17.8161 54.3797 18.4227C54.3769 18.6437 54.412 18.8759 54.2685 19.0702C53.7942 19.2222 52.7343 19.2461 51.963 19.1152C51.9264 18.9899 51.8687 18.8478 51.8476 18.7014C51.8251 18.5466 51.8363 18.3875 51.8363 18.2299C51.8363 15.9343 51.8349 13.6387 51.8377 11.343C51.8377 11.0559 51.7885 10.7561 51.9926 10.4155ZM54.4585 14.8815C54.74 15.0278 55.0102 14.9856 55.2748 14.9814C55.8167 14.973 56.2249 14.714 56.4825 14.2551C56.84 13.6189 56.8906 12.9377 56.6739 12.241C56.5683 11.9018 56.3459 11.6499 56.0194 11.5147C55.5099 11.3036 54.9877 11.291 54.4754 11.4528C54.3557 12.02 54.3431 14.1862 54.4571 14.8815H54.4585Z" fill="white"/>
<path d="M114.653 15.87C115.471 16.0529 116.269 15.832 117.047 16.0192C117.257 16.3415 117.238 16.6525 117.064 17.0114C116.291 17.1184 115.503 17.0002 114.743 17.0818C114.471 17.4041 114.592 17.756 114.566 18.0797C114.537 18.4105 114.618 18.7525 114.477 19.0622C113.969 19.2296 112.851 19.2479 112.167 19.0945C112.138 18.965 112.073 18.8187 112.073 18.6709C112.067 17.2535 112.04 15.8348 112.083 14.4188C112.112 13.4083 112.435 12.4723 113.092 11.6813C113.818 10.8086 114.751 10.3315 115.886 10.2273C118.385 9.99932 120.015 11.7235 120.464 13.8207C120.642 14.6525 120.597 15.4773 120.432 16.2992C120.163 17.6406 119.641 18.8764 118.833 19.9855C118.568 20.3486 118.286 20.6948 117.935 20.944C117.602 20.8548 117.289 20.6906 116.996 20.4513C117.037 20.3233 117.065 20.1698 117.13 20.0347C117.772 18.692 118.031 17.2549 118.117 15.7883C118.172 14.8481 118.214 13.8967 117.998 12.9649C117.928 12.6609 117.838 12.3526 117.697 12.0754C117.14 10.9817 115.589 11.0915 115.079 11.998C114.906 12.3062 114.763 12.6538 114.703 13.0001C114.56 13.8432 114.535 14.7003 114.578 15.5561C114.582 15.6419 114.62 15.7264 114.656 15.8643L114.653 15.87Z" fill="white"/>
<path d="M65.8747 32.7488C65.6017 32.5883 65.3371 32.4321 65.0485 32.2632C65.1048 32.0774 65.1316 31.9254 65.1935 31.7889C65.7748 30.501 66.0422 29.1442 66.1548 27.7437C66.2238 26.8866 66.2336 26.035 66.1182 25.1877C66.0605 24.7697 65.9662 24.3432 65.8057 23.9548C65.5608 23.3608 65.0823 23.068 64.4208 23.0765C63.7705 23.0849 63.3046 23.365 63.0161 23.9463C62.812 24.3559 62.7022 24.7964 62.6797 25.244C62.6445 25.9393 62.6586 26.6374 62.6572 27.3341C62.6572 27.4186 62.698 27.503 62.7262 27.6086C63.5172 27.8521 64.3476 27.5593 65.1245 27.8042C65.285 28.097 65.2413 28.3799 65.1653 28.7107C65.0302 28.7416 64.8838 28.8008 64.7361 28.805C64.2645 28.819 63.7916 28.8078 63.3187 28.8162C63.1231 28.8205 62.9274 28.85 62.7262 28.8697C62.5291 29.5453 62.7599 30.2139 62.5657 30.8219C62.0421 30.9936 60.9387 31.0105 60.2434 30.8571C60.2138 30.729 60.1533 30.5826 60.1519 30.4348C60.149 28.9514 60.1139 27.465 60.1702 25.983C60.2419 24.066 61.5242 22.498 63.3426 22.0898C65.3258 21.6451 66.9163 22.415 67.8762 23.959C68.587 25.1033 68.7404 26.3658 68.5518 27.6649C68.3139 29.299 67.6707 30.7726 66.6404 32.0689C66.4462 32.3138 66.2533 32.5672 65.8719 32.753L65.8747 32.7488Z" fill="white"/>
<path d="M108.119 15.8743C108.387 16.3697 108.668 16.7455 108.979 17.0988C109.292 17.4521 109.612 17.7997 109.95 18.1291C110.28 18.45 110.646 18.7343 111.052 19.0623C110.494 19.2213 109.061 19.2495 108.073 19.1411C107.929 18.9863 107.732 18.8047 107.572 18.5936C107.118 17.9982 106.779 17.3395 106.555 16.6231C106.495 16.4317 106.434 16.2403 106.363 16.0136H105.831C105.688 16.5499 105.774 17.0679 105.753 17.5788C105.733 18.07 105.783 18.564 105.714 19.0158C105.439 19.2537 105.158 19.1805 104.895 19.1932C104.647 19.2044 104.399 19.2002 104.151 19.1932C103.887 19.1861 103.612 19.2298 103.315 19.0707C103.296 18.8877 103.258 18.6921 103.256 18.4979C103.252 16.0221 103.252 13.5463 103.256 11.0719C103.256 10.8763 103.296 10.6821 103.321 10.447C103.559 10.4217 103.754 10.3837 103.95 10.3823C105.189 10.3766 106.426 10.3795 107.664 10.3809C108.188 10.3809 108.696 10.4794 109.182 10.6708C110.548 11.2099 111.127 12.6891 110.495 14.0178C110.14 14.7624 109.559 15.2719 108.809 15.5956C108.605 15.6829 108.398 15.7617 108.116 15.8743H108.119ZM105.776 14.9468C106.088 14.9637 106.308 14.9904 106.526 14.9862C107.401 14.9707 107.976 14.5076 108.109 13.6477C108.171 13.255 108.15 12.8426 108.122 12.4428C108.097 12.0924 107.902 11.8123 107.608 11.6124C107.169 11.314 106.36 11.2676 105.767 11.528C105.75 12.6202 105.736 13.7335 105.774 14.9468H105.776Z" fill="white"/>
<path d="M86.8605 13.5631C86.8506 13.7813 86.8337 13.998 86.8337 14.2162C86.8309 15.5871 86.8337 16.9594 86.8309 18.3303C86.8309 18.5724 86.807 18.8145 86.7943 19.0523C86.4101 19.2564 86.0695 19.2241 85.75 19.1213C85.5769 18.9229 85.5994 18.7145 85.5994 18.5147C85.5966 16.0192 85.5966 13.5237 85.6008 11.0268C85.6008 10.8523 85.6444 10.6778 85.6697 10.4807C86.1976 10.3076 86.7057 10.385 87.2701 10.4188C87.6698 10.8678 88.0878 11.3365 88.503 11.8052C88.9351 12.2936 89.3658 12.782 89.7993 13.2704C90.2174 13.7419 90.6297 14.2176 91.0548 14.6821C91.4756 15.1409 91.8529 15.642 92.3272 16.0825C92.5102 15.8911 92.4539 15.7025 92.4539 15.535C92.4595 14.1191 92.4539 12.7017 92.4595 11.2858C92.4595 11.0212 92.4229 10.7482 92.5566 10.4737C92.8817 10.3414 93.2055 10.3597 93.5869 10.4554C93.6193 10.6173 93.6756 10.7862 93.6812 10.9565C93.6953 11.4054 93.6882 11.8558 93.6882 12.3048C93.6882 14.2838 93.691 16.2627 93.6854 18.2402C93.6854 18.5259 93.7445 18.8271 93.5461 19.1185C93.0816 19.2578 92.5932 19.1945 92.0415 19.1635C91.1843 18.2656 90.3609 17.2874 89.5108 16.3331C88.6762 15.3957 87.8429 14.4555 87.0097 13.5181C86.9604 13.5336 86.9126 13.5491 86.8633 13.5631H86.8605Z" fill="white"/>
<path d="M76.2733 12.6226C75.906 12.7774 75.6019 12.9055 75.2641 13.0462C75.1515 12.8605 75.0474 12.7183 74.9714 12.5621C74.217 10.9871 72.0156 10.8928 71.0445 12.4101C70.4364 13.3615 70.2464 14.4045 70.4069 15.5136C70.4843 16.0498 70.6152 16.5748 70.9122 17.0407C71.3935 17.7937 72.0508 18.2413 72.977 18.2145C73.5231 18.1991 73.7637 17.9893 73.7877 17.4404C73.8144 16.8338 73.7961 16.2258 73.8018 15.6191C73.8046 15.3756 73.8229 15.1321 73.8355 14.8478C74.0424 14.807 74.2141 14.7423 74.383 14.7465C74.9826 14.7606 75.5921 14.6536 76.2015 14.8352C76.3775 15.3053 76.2775 15.781 76.293 16.2441C76.3099 16.7156 76.3043 17.1885 76.2944 17.6614C76.2846 18.1287 76.3465 18.6016 76.2409 19.0548C76.0129 19.2251 75.7976 19.2026 75.547 19.1336C75.4161 18.9802 75.2712 18.8127 75.0952 18.6086C74.9151 18.6945 74.7391 18.7804 74.5618 18.8634C73.1276 19.532 71.6849 19.5573 70.2704 18.8409C68.7869 18.0893 67.9761 16.8465 67.8382 15.1983C67.6834 13.3615 68.3604 11.8738 69.9354 10.8914C71.3949 9.98073 72.9544 9.94554 74.5182 10.6535C75.2135 10.9688 75.7497 11.4755 76.1044 12.1595C76.1649 12.2749 76.1959 12.4058 76.2747 12.6226H76.2733Z" fill="white"/>
<path d="M77.3458 29.3694C77.6667 28.8993 78.0622 28.5179 78.5408 28.1533C78.6534 28.2969 78.7589 28.4081 78.8392 28.5348C79.0967 28.9415 79.4374 29.2624 79.83 29.5341C80.5282 30.0169 81.2924 30.0647 82.0905 29.8803C82.2411 29.8451 82.3931 29.7818 82.524 29.7002C83.1179 29.33 83.1531 28.5812 82.5718 28.1942C82.3157 28.0238 82.0046 27.9239 81.7076 27.8324C81.0841 27.641 80.4479 27.496 79.8286 27.2934C79.4247 27.1611 79.032 26.9823 78.6534 26.7867C76.8574 25.8577 77.229 23.3313 78.5295 22.56C78.7984 22.4009 79.0841 22.2489 79.3825 22.1659C80.4648 21.8633 81.5598 21.8407 82.6464 22.1462C83.398 22.3573 84.0384 22.7711 84.5789 23.3355C84.6408 23.4002 84.6957 23.472 84.745 23.5466C84.7689 23.5818 84.7717 23.6311 84.7971 23.7113C84.4987 24.1561 84.1229 24.5488 83.619 24.8725C83.5008 24.6965 83.4093 24.5445 83.3023 24.408C83.1081 24.1617 82.9265 23.8985 82.6999 23.686C81.961 22.9949 81.0813 22.9681 80.1749 23.244C79.6977 23.389 79.5091 23.6944 79.5063 24.1448C79.5035 24.491 79.6414 24.7697 79.9469 24.9231C80.2058 25.054 80.4859 25.1469 80.7646 25.2272C81.2826 25.3778 81.8174 25.4777 82.3255 25.6522C82.8547 25.8352 83.3854 26.0365 83.8724 26.3081C85.6641 27.306 85.1954 29.7677 83.8709 30.5292C83.4149 30.791 82.9307 30.9711 82.4142 31.0345C81.5176 31.1457 80.6182 31.1654 79.7315 30.943C78.8561 30.7234 78.1256 30.2533 77.5006 29.6129C77.4401 29.551 77.4063 29.4637 77.3472 29.3694H77.3458Z" fill="white"/>
<path d="M132.419 29.3978C132.788 28.8953 133.17 28.5251 133.62 28.1521C133.734 28.283 133.845 28.3844 133.924 28.5068C134.197 28.9291 134.541 29.2753 134.959 29.554C135.643 30.01 136.384 30.0635 137.157 29.8819C137.329 29.8411 137.503 29.7708 137.651 29.675C138.218 29.3119 138.253 28.5969 137.702 28.2141C137.45 28.0395 137.14 27.934 136.843 27.8411C136.221 27.6483 135.583 27.5033 134.964 27.3034C134.56 27.1725 134.161 27.005 133.789 26.8024C133.005 26.3745 132.532 25.7397 132.535 24.8009C132.538 23.7777 132.904 22.9585 133.818 22.4405C134.031 22.3195 134.266 22.221 134.503 22.1576C135.565 21.8761 136.635 21.8438 137.7 22.1323C138.455 22.3364 139.099 22.7403 139.644 23.2977C139.75 23.4061 139.827 23.5426 139.924 23.6763C139.612 24.1535 139.222 24.5138 138.767 24.8769C138.667 24.7685 138.573 24.6841 138.503 24.5827C138.386 24.4181 138.3 24.2295 138.173 24.0746C137.384 23.1105 136.607 22.943 135.403 23.1936C135.254 23.2245 135.105 23.3005 134.977 23.3878C134.442 23.758 134.422 24.5138 134.967 24.8671C135.241 25.0458 135.579 25.1373 135.899 25.2344C136.543 25.4301 137.202 25.5807 137.843 25.7904C138.224 25.9156 138.591 26.0958 138.947 26.2858C140.742 27.2457 140.339 29.8468 138.877 30.5716C138.538 30.7391 138.175 30.8784 137.806 30.9615C136.828 31.1811 135.84 31.1797 134.864 30.946C133.897 30.7152 133.101 30.1986 132.417 29.3978H132.419Z" fill="white"/>
<path d="M76.3507 29.8545C76.4675 30.1557 76.452 30.4808 76.3437 30.8622C76.1846 30.8904 76.0143 30.9439 75.844 30.9453C74.1114 30.9523 72.3773 30.9509 70.6433 30.9453C70.4913 30.9453 70.3407 30.9016 70.2239 30.8847C70.0395 30.6821 70.062 30.4723 70.062 30.2725C70.0592 27.7742 70.0592 25.2759 70.0634 22.7776C70.0634 22.6045 70.1085 22.4299 70.1366 22.2273C70.3126 22.1935 70.4617 22.1414 70.6109 22.1414C72.3661 22.1358 74.1226 22.1372 75.8778 22.1414C76.0101 22.1414 76.141 22.1752 76.2775 22.1949C76.5252 22.5369 76.4014 22.886 76.3929 23.1844C76.1579 23.4082 75.9228 23.3702 75.7032 23.3716C74.9601 23.3772 74.2169 23.3716 73.4752 23.3758C73.2331 23.3772 72.9896 23.3997 72.8052 23.4081C72.58 23.6193 72.5955 23.8318 72.604 24.0289C72.6307 24.627 72.5054 25.2365 72.7137 25.8614C73.6117 26.019 74.5167 25.8445 75.3992 25.9712C75.6385 26.354 75.5991 26.7115 75.433 27.1028C74.5449 27.2647 73.6385 27.0662 72.7672 27.221C72.5462 27.4688 72.611 27.7489 72.6011 28.0121C72.5913 28.2823 72.5941 28.5525 72.6011 28.8228C72.6082 29.0874 72.5645 29.3618 72.718 29.6124C72.9558 29.7405 73.2078 29.7053 73.4499 29.7067C74.193 29.7123 74.9362 29.7067 75.6779 29.7109C75.8989 29.7123 76.1311 29.6729 76.3521 29.8545H76.3507Z" fill="white"/>
<path d="M60.9133 19.1086C60.7444 18.9256 60.7627 18.6934 60.7627 18.4724C60.7599 16.022 60.7599 13.5715 60.7627 11.1211C60.7627 10.8987 60.7472 10.6679 60.919 10.4511C61.0034 10.4328 61.1118 10.3892 61.2188 10.3892C63.0626 10.3878 64.905 10.3892 66.7488 10.3948C66.8332 10.3948 66.9177 10.437 67.019 10.4624C67.1668 10.7945 67.1358 11.1197 67.0711 11.4265C66.8797 11.6489 66.6432 11.6095 66.4251 11.6123C65.6833 11.6193 64.9416 11.6123 64.1998 11.6165C63.9549 11.6165 63.71 11.6334 63.4736 11.6433C63.1949 12.0388 63.3187 12.4554 63.3061 12.8467C63.2934 13.245 63.2582 13.6517 63.3736 14.0881C63.5594 14.1162 63.7297 14.1613 63.9014 14.1655C64.418 14.1753 64.9359 14.1669 65.4525 14.1725C65.6749 14.1753 65.8958 14.1936 66.1098 14.2049C66.3294 14.6032 66.3153 14.9593 66.1309 15.3618C65.2442 15.4801 64.3434 15.3464 63.4341 15.4449C63.3877 15.5899 63.3159 15.7137 63.3145 15.8362C63.3089 16.5033 63.2498 17.1747 63.3638 17.8855C63.596 17.9108 63.7902 17.9474 63.9845 17.9488C64.7487 17.9558 65.513 17.9488 66.2773 17.9544C66.5208 17.9558 66.7727 17.915 66.9923 18.0459C67.1058 18.3809 67.1091 18.7375 67.0021 19.1156C66.8684 19.1395 66.7192 19.1832 66.5686 19.1916C64.9796 19.2733 61.4299 19.2184 60.9147 19.11L60.9133 19.1086Z" fill="white"/>
<path d="M77.9552 19.1301C77.9242 18.912 77.8792 18.7388 77.8778 18.5671C77.8736 16.0463 77.8736 13.5255 77.8778 11.0047C77.8778 10.8499 77.9088 10.695 77.9228 10.5655C78.1396 10.3234 78.4028 10.3868 78.6421 10.3854C79.723 10.3783 80.8026 10.3826 81.8835 10.3826C82.4015 10.3826 82.9194 10.3797 83.4374 10.384C83.6584 10.3854 83.8793 10.4037 84.0891 10.4135C84.3213 10.7921 84.2734 11.1342 84.1763 11.4593C83.9638 11.6563 83.7301 11.6141 83.5092 11.6155C82.721 11.6212 81.9328 11.6155 81.146 11.6212C80.925 11.6226 80.6942 11.5803 80.4929 11.7112C80.3226 12.239 80.324 13.5804 80.5084 14.1237C81.3965 14.2672 82.3255 14.0744 83.2263 14.2363C83.3881 14.6022 83.36 14.9273 83.2868 15.23C83.1348 15.4172 82.9476 15.4059 82.7702 15.4073C82.2298 15.4129 81.6893 15.4073 81.1488 15.4129C80.9292 15.4157 80.7097 15.434 80.5112 15.4439C80.3198 16.0196 80.3212 17.3637 80.514 17.9239C80.7139 17.9337 80.9349 17.9535 81.1544 17.9535C81.9201 17.9577 82.6858 17.952 83.4501 17.9577C83.6696 17.9591 83.8892 17.9844 84.1031 17.9999C84.3072 18.3856 84.2734 18.7262 84.151 19.109C83.999 19.1386 83.8498 19.1935 83.7006 19.1935C81.944 19.1991 80.1889 19.1991 78.4324 19.1949C78.3 19.1949 78.1677 19.1611 77.9524 19.1329L77.9552 19.1301Z" fill="white"/>
<path d="M142.264 19.1195C142.152 18.4903 142.1 12.7562 142.179 10.9532C142.186 10.8012 142.224 10.6506 142.251 10.4747C142.397 10.4409 142.524 10.3874 142.651 10.3874C144.472 10.3832 146.293 10.3846 148.114 10.3874C148.202 10.3874 148.289 10.417 148.38 10.4339C148.635 10.7675 148.521 11.1151 148.493 11.4149C148.243 11.6612 147.984 11.6091 147.743 11.6119C146.979 11.619 146.214 11.6119 145.45 11.6176C145.231 11.6176 145.011 11.6415 144.813 11.6528C144.624 12.2172 144.622 13.5543 144.801 14.1116C145.688 14.2805 146.617 14.0539 147.501 14.2425C147.606 14.5541 147.628 14.8881 147.567 15.2447C147.442 15.4136 147.255 15.4023 147.077 15.4051C146.538 15.4108 145.998 15.4051 145.459 15.4108C145.238 15.4136 145.017 15.4305 144.818 15.4389C144.625 15.985 144.62 17.3249 144.807 17.9133C145.005 17.9259 145.223 17.9485 145.443 17.9499C146.207 17.9541 146.972 17.9499 147.736 17.9541C147.957 17.9541 148.176 17.9766 148.392 17.9893C148.593 18.3975 148.592 18.755 148.417 19.1054C147.85 19.2251 144.987 19.2701 142.811 19.1927C142.638 19.1871 142.465 19.1476 142.264 19.1209V19.1195Z" fill="white"/>
<path d="M109.287 25.9832C109.406 26.4096 109.424 26.7333 109.273 27.0937C109.097 27.1176 108.924 27.1598 108.751 27.1626C108.233 27.1725 107.717 27.1626 107.199 27.1697C106.978 27.1725 106.758 27.1922 106.557 27.2034C106.381 27.6989 106.354 28.8249 106.484 29.5723C106.662 29.7566 106.899 29.7074 107.117 29.7088C107.883 29.7158 108.647 29.7088 109.413 29.7144C109.656 29.7158 109.911 29.6722 110.149 29.8509C110.27 30.1606 110.253 30.4857 110.149 30.8545C110.009 30.8854 109.86 30.946 109.712 30.9474C107.957 30.9544 106.202 30.953 104.447 30.9502C104.316 30.9502 104.185 30.9136 104.022 30.8883C103.985 30.7292 103.93 30.5842 103.921 30.4365C103.904 30.1901 103.912 29.9424 103.912 29.6947C103.912 27.4892 103.912 25.285 103.914 23.0795C103.914 22.8135 103.935 22.5475 103.949 22.2378C104.16 22.2012 104.33 22.1463 104.5 22.1449C106.211 22.1379 107.921 22.1379 109.631 22.1449C109.802 22.1449 109.974 22.1956 110.13 22.2209C110.277 22.5981 110.235 22.9219 110.185 23.209C109.919 23.4187 109.663 23.3723 109.421 23.3737C108.678 23.3807 107.936 23.3737 107.193 23.3779C106.972 23.3793 106.752 23.4032 106.554 23.4145C106.382 23.9198 106.357 25.0415 106.492 25.841C106.641 25.8677 106.81 25.9184 106.98 25.9226C107.521 25.9339 108.06 25.9226 108.6 25.9311C108.82 25.9339 109.038 25.9634 109.287 25.9832Z" fill="white"/>
<path d="M101.764 10.4479C101.877 10.8462 101.895 11.1713 101.771 11.4782C101.529 11.6541 101.275 11.6119 101.031 11.6133C100.289 11.6189 99.5461 11.6133 98.8044 11.6175C98.5862 11.6189 98.3667 11.6471 98.1696 11.6625C98.0092 12.203 97.9923 13.3825 98.1288 14.0905C98.2808 14.1144 98.4511 14.1608 98.6214 14.1651C99.1605 14.1763 99.701 14.1651 100.241 14.1721C100.462 14.1749 100.693 14.1341 100.924 14.3016C101.054 14.6014 101.03 14.9265 100.949 15.2333C100.8 15.4135 100.613 15.4036 100.436 15.4051C99.8952 15.4093 99.3561 15.4051 98.8157 15.4107C98.5961 15.4135 98.3765 15.436 98.1767 15.4473C98.0078 15.9624 97.9852 17.1123 98.1147 17.8189C98.2738 17.9864 98.4863 17.947 98.6834 17.9484C99.4701 17.954 100.258 17.9484 101.045 17.9526C101.289 17.9526 101.541 17.9259 101.766 18.0624C101.888 18.4058 101.881 18.731 101.763 19.1096C101.602 19.1363 101.432 19.1884 101.26 19.1884C99.5504 19.194 97.8403 19.194 96.1316 19.1884C95.9796 19.1884 95.8276 19.1476 95.715 19.1321C95.5081 18.935 95.5475 18.7225 95.5461 18.5255C95.539 17.7612 95.5432 16.9955 95.5432 16.2312C95.5432 14.5887 95.5418 12.9476 95.5447 11.305C95.5447 11.0404 95.5672 10.7744 95.5813 10.4704C95.798 10.4352 95.9683 10.3831 96.14 10.3831C97.8501 10.3775 99.5602 10.3775 101.269 10.3831C101.422 10.3831 101.574 10.4211 101.766 10.4465L101.764 10.4479Z" fill="white"/>
<path d="M137.577 16.9901C137.662 16.7381 137.755 16.489 137.834 16.2356C138.365 14.541 138.891 12.845 139.422 11.1504C139.495 10.9181 139.584 10.6901 139.662 10.4663C140.168 10.3383 140.628 10.3537 141.068 10.4283C141.205 10.6437 141.107 10.8084 141.049 10.9744C140.715 11.9301 140.38 12.8844 140.044 13.8373C139.512 15.3419 138.98 16.8465 138.444 18.3497C138.353 18.6016 138.244 18.8465 138.127 19.1323C137.382 19.2364 136.655 19.2139 135.955 19.1534C135.7 18.7255 132.98 11.6247 132.749 10.7971C132.721 10.6958 132.732 10.5818 132.726 10.479C133.265 10.3481 134.488 10.3425 135.139 10.4734C135.458 11.1307 135.65 11.871 135.904 12.586C136.169 13.3264 136.422 14.0723 136.68 14.8155C136.929 15.5347 137.175 16.2539 137.425 16.9732C137.477 16.9788 137.527 16.9844 137.579 16.9901H137.577Z" fill="white"/>
<path d="M130.5 28.3615C130.892 28.4601 131.21 28.5544 131.51 28.8021C131.462 28.9471 131.437 29.1005 131.365 29.23C131.053 29.7958 130.597 30.2265 130.032 30.5347C127.468 31.9338 123.88 30.7782 123.207 27.4748C122.696 24.9653 124.167 22.5993 126.684 22.0616C127.855 21.8111 129.016 21.9279 130.082 22.55C130.639 22.8751 131.079 23.3157 131.388 23.8829C131.459 24.0152 131.488 24.17 131.538 24.322C131.236 24.5824 130.92 24.726 130.516 24.7598C130.419 24.5838 130.318 24.4135 130.228 24.2376C129.502 22.8174 127.547 22.7316 126.578 23.8745C126.193 24.3291 125.938 24.8541 125.797 25.4297C125.572 26.3488 125.631 27.2623 125.92 28.1575C126.052 28.567 126.269 28.933 126.557 29.2595C127.396 30.2054 129.185 30.3292 130.077 29.0203C130.215 28.819 130.342 28.6093 130.5 28.3615Z" fill="white"/>
<path d="M19.8019 24.0365C19.9764 24.0168 20.1523 23.9971 20.393 23.9703C20.3606 24.1322 20.3677 24.2716 20.3072 24.3701C20.0214 24.8261 19.754 25.3004 19.4134 25.7128C18.6196 26.6727 17.6639 27.4567 16.5998 28.1013C16.4549 28.1886 16.2874 28.2379 16.1171 28.3096C15.9468 27.9831 16.0073 27.6903 16.0425 27.4088C16.2592 25.6804 16.8222 24.09 17.9313 22.7191C17.9735 22.667 18.0073 22.6079 18.0453 22.553L18.0495 22.5572C16.8912 23.1554 16.0425 24.0478 15.5104 25.2399C15.4401 25.3975 15.3795 25.5594 15.2796 25.8057C15.2064 25.6326 15.1557 25.5566 15.1445 25.4764C14.9165 23.9675 15.1375 22.5671 16.1354 21.3524C16.5731 20.819 17.1333 20.4474 17.7455 20.1546C18.628 19.7338 19.5767 19.5508 20.5422 19.4509C20.6534 19.4396 20.7674 19.4467 20.8786 19.4607C20.9419 19.4678 21.0011 19.5044 21.0841 19.5353C21.208 19.7887 21.1502 20.0533 21.1108 20.3165C20.9251 21.5734 20.5774 22.774 19.8891 23.8577C19.8539 23.914 19.8342 23.9802 19.8061 24.0421L19.8005 24.0365H19.8019Z" fill="white"/>
<path d="M41.3521 4.16827C41.1564 4.66793 40.5442 5.41531 39.8812 6.00927C39.2957 6.53567 38.6455 6.96355 37.9009 7.34498C38.0825 7.45476 38.2106 7.53358 38.3724 7.6307C38.3133 7.71655 38.2809 7.80663 38.2176 7.84745C37.1 8.57231 35.8629 8.93825 34.5426 9.04382C34.4793 9.04945 34.4131 9.01707 34.3259 8.99737C33.9937 8.61172 33.7727 8.15147 33.5616 7.62929C33.9557 7.01703 34.544 6.599 35.1408 6.21617C35.7207 5.84318 36.3513 5.54761 37.0114 5.19011C36.7257 5.11411 36.4751 5.16618 36.226 5.2084C35.9389 5.25626 35.6489 5.29849 35.366 5.36886C35.1056 5.4336 34.8452 5.51383 34.5975 5.61798C34.3301 5.73058 34.0697 5.86711 33.8192 6.01631C33.5968 6.15002 33.3927 6.31469 33.1436 6.49344C33.1436 6.36536 33.1253 6.29639 33.1464 6.24291C33.5025 5.35338 34.005 4.56377 34.7636 3.95996C35.8052 3.13095 36.9903 2.83538 38.3049 3.03242C39.2479 3.17458 40.1332 3.48704 40.9819 3.91492C41.117 3.98248 41.2324 4.08664 41.3507 4.16827H41.3521Z" fill="white"/>
<path d="M125.583 19.1175C124.927 19.2301 123.873 19.2231 123.323 19.1091C123.121 18.8627 123.176 18.5587 123.175 18.273C123.169 16.8331 123.172 15.3919 123.172 13.952C123.172 13.4341 123.176 12.9161 123.169 12.3995C123.167 12.18 123.136 11.9618 123.119 11.7366C122.385 11.4664 121.642 11.7549 120.93 11.5283C120.775 11.1779 120.793 10.8386 120.923 10.4544C121.102 10.4291 121.275 10.3854 121.448 10.384C123.451 10.3798 125.455 10.3798 127.458 10.384C127.611 10.384 127.763 10.4206 127.932 10.4431C128.111 10.802 128.083 11.1427 127.965 11.51C127.271 11.7634 126.529 11.4861 125.832 11.6944C125.672 11.9534 125.714 12.2292 125.713 12.4924C125.708 14.4277 125.713 16.3645 125.708 18.2997C125.708 18.5658 125.746 18.8402 125.582 19.1175H125.583Z" fill="white"/>
<path d="M113.161 23.4538C112.458 23.2525 111.727 23.4819 111.014 23.306C110.8 22.9485 110.827 22.591 110.997 22.1856C111.196 22.1687 111.393 22.142 111.59 22.1378C114.989 22.0744 117.426 22.1054 118.005 22.2208C118.207 22.5487 118.159 22.8908 118.034 23.2666C117.324 23.5185 116.563 23.2384 115.846 23.4538C115.711 23.724 115.753 23.9985 115.753 24.2617C115.749 26.173 115.753 28.0858 115.751 29.9972C115.751 30.2646 115.732 30.5306 115.724 30.7558C115.456 31.019 115.172 30.936 114.912 30.9486C114.665 30.9613 114.416 30.9557 114.17 30.9501C113.904 30.943 113.632 30.9852 113.366 30.8586C113.216 30.6094 113.259 30.3336 113.258 30.0704C113.254 28.1365 113.258 26.2012 113.254 24.2673C113.254 24.0027 113.295 23.7296 113.161 23.4524V23.4538Z" fill="white"/>
<path d="M88.0132 30.8248C88.0019 30.5334 87.9836 30.266 87.9836 30C87.9808 28.0886 87.9837 26.1772 87.9794 24.2659C87.9794 24.0027 88.0329 23.7254 87.8654 23.4495C87.1814 23.2525 86.4481 23.4861 85.7415 23.306C85.5065 22.9752 85.5783 22.629 85.6571 22.2982C85.8809 22.0814 86.1398 22.1406 86.3805 22.1392C87.4826 22.1321 88.5846 22.1363 89.6867 22.1363C90.451 22.1363 91.2167 22.1335 91.9809 22.1377C92.2244 22.1392 92.4693 22.1589 92.6945 22.1701C92.9183 22.553 92.8859 22.895 92.7522 23.282C92.0457 23.5072 91.2856 23.2454 90.5692 23.4552C90.4439 23.7324 90.4805 24.0041 90.4805 24.2687C90.4777 26.1801 90.4805 28.0914 90.4777 30.0028C90.4777 30.2688 90.4594 30.5348 90.451 30.76C90.1779 31.0162 89.895 30.9374 89.6332 30.9515C89.3869 30.9641 89.1392 30.9585 88.8915 30.9515C88.6269 30.9458 88.3538 30.9838 88.0132 30.8248Z" fill="white"/>
<path d="M2.59538 12.2174C2.70235 12.1906 2.82762 12.1343 2.95289 12.1301C4.12533 12.0893 5.29213 12.1245 6.43502 12.4257C7.26966 12.6453 8.05222 12.9746 8.73908 13.5095C9.34148 13.9796 9.76232 14.5777 10.0072 15.2998C10.041 15.3997 10.0382 15.5109 10.0509 15.6094C9.82144 15.7474 9.67647 15.5954 9.53009 15.5179C8.79115 15.1309 8.03392 14.7889 7.22884 14.5651C6.97127 14.4933 6.71511 14.4201 6.36323 14.4398C6.45191 14.5791 6.4885 14.6819 6.56169 14.7438C6.95579 15.0788 7.34426 15.4222 7.76087 15.7262C8.43225 16.2175 9.12755 16.6763 9.80736 17.1549C9.965 17.266 10.1775 17.328 10.2395 17.6067C10.1438 17.6418 10.0509 17.6939 9.95093 17.7094C7.98044 18.0303 6.25204 17.5278 4.79388 16.1541C3.82553 15.2421 3.14993 14.1372 2.68687 12.8986C2.61087 12.6945 2.48841 12.4876 2.59679 12.2174H2.59538Z" fill="white"/>
<path d="M7.78205 20.6622C7.94251 20.8171 8.09452 20.9803 8.26341 21.1253C9.36689 22.0754 10.0875 23.2788 10.5984 24.6229C10.628 24.7017 10.6196 24.796 10.6294 24.8819C10.1945 24.9678 9.72157 24.8552 8.64344 24.3893C7.58641 23.9318 6.60539 23.3632 5.83127 22.3906C6.00862 22.3189 6.12262 22.2724 6.25915 22.2161C6.23804 22.1598 6.23241 22.088 6.193 22.0528C5.34991 21.2773 4.75595 20.3301 4.30555 19.2871C4.23659 19.1267 4.19858 18.9521 4.13806 18.7551C4.2774 18.6805 4.38437 18.5918 4.50542 18.5651C5.41325 18.3723 6.32249 18.2878 7.25002 18.4539C8.92775 18.7537 9.9707 19.7502 10.4999 21.3336C10.6646 21.8248 10.6942 22.0908 10.6505 22.5638C9.86373 21.625 9.0122 20.8466 7.78205 20.6637C7.7539 20.6439 7.72716 20.6242 7.76094 20.6482C7.72435 20.6285 7.75531 20.6454 7.78487 20.6608L7.78205 20.6622Z" fill="white"/>
<path d="M20.4833 4.71827C20.3073 4.68871 20.1286 4.6676 19.954 4.6296C19.0715 4.43536 18.2102 4.54515 17.36 4.80976C17.3051 4.82665 17.2615 4.88295 17.1461 4.97302C18.5184 5.01384 19.75 5.31927 20.8999 5.92589C21.2334 6.10183 21.5797 6.26088 21.8542 6.53956C21.4615 6.90269 20.6831 7.19686 19.5346 7.43613C18.486 7.65429 17.3994 7.64866 16.6985 7.40658C16.7323 7.29116 16.7661 7.17293 16.8097 7.02374C16.7337 6.99418 16.6577 6.9421 16.5789 6.93507C15.5486 6.84921 14.6154 6.46637 13.7132 5.99205C13.519 5.89071 13.3417 5.757 13.1404 5.62892C13.1995 5.50506 13.2234 5.41638 13.2755 5.35023C13.8835 4.58174 14.6126 3.94978 15.4895 3.50924C17.3248 2.59014 19.149 3.20381 20.3847 4.54937C20.4284 4.59582 20.4453 4.6676 20.4734 4.72812L20.4819 4.71967L20.4833 4.71827Z" fill="white"/>
<path d="M129.268 10.4216C130.08 10.3596 130.812 10.3526 131.516 10.4188C131.747 10.6946 131.685 10.9761 131.686 11.2365C131.692 12.8551 131.689 14.4737 131.689 16.0924C131.689 16.8566 131.692 17.6209 131.688 18.3852C131.688 18.6061 131.665 18.8271 131.652 19.0762C131.468 19.1199 131.322 19.1874 131.175 19.1846C130.553 19.1734 129.924 19.2733 129.272 19.1016C129.246 18.9144 129.199 18.7413 129.199 18.5695C129.195 16.0515 129.195 13.5335 129.199 11.0155C129.199 10.8424 129.24 10.6679 129.272 10.4202L129.268 10.4216Z" fill="white"/>
<path d="M119.374 22.1684C120.129 22.1247 120.86 22.0952 121.583 22.1881C121.762 22.4738 121.72 22.7497 121.72 23.0115C121.724 25.1452 121.723 27.2804 121.721 29.4141C121.721 29.728 121.727 30.0433 121.717 30.3571C121.713 30.5106 121.678 30.6626 121.659 30.8019C121.178 30.9835 120.129 31.0116 119.386 30.8751C119.21 30.7217 119.233 30.5106 119.231 30.3121C119.226 29.773 119.229 29.234 119.229 28.6949C119.229 26.8075 119.227 24.9214 119.23 23.034C119.23 22.7694 119.192 22.4963 119.374 22.1684Z" fill="white"/>
<path d="M10.8264 30.0685C10.0649 30.9946 9.31332 31.8278 8.90374 32.8891C9.12612 33.0312 9.24998 32.8891 9.35977 32.8004C10.1606 32.1487 10.9545 31.4886 11.7483 30.8285C11.9861 30.63 12.217 30.4231 12.4267 30.2416C12.6294 30.3063 12.6223 30.4274 12.6111 30.5357C12.376 32.6653 11.3331 34.2431 9.39073 35.1861C8.47305 35.6323 7.50047 35.8983 6.48145 35.9785C6.35477 35.9884 6.22388 35.9588 6.07891 35.9461C6.06202 35.8293 6.02542 35.7392 6.04231 35.659C6.35196 34.0742 6.8671 32.5766 7.92554 31.3183C8.46038 30.6821 9.13175 30.2486 9.94388 30.0431C10.2029 29.9784 10.4661 29.9249 10.8278 30.0699L10.8264 30.0685Z" fill="white"/>
<path d="M40.2725 11.3128C38.8186 10.9863 37.6546 10.4092 36.6581 9.41692C37.0128 9.08757 37.4364 9.1129 37.8108 9.06223C38.8608 8.92149 39.9108 8.89334 40.9467 9.34514C40.8988 9.48026 40.8637 9.57879 40.8116 9.72798C41.7011 9.9391 42.4837 10.374 43.1987 10.9314C43.3352 11.0384 43.4464 11.1777 43.5506 11.2833C43.5323 11.3733 43.5393 11.4325 43.5126 11.4578C42.5935 12.3586 41.528 12.9328 40.2021 12.8554C39.0874 12.7907 38.2668 12.2052 37.6546 11.2987C37.6377 11.2734 37.6616 11.2185 37.6715 11.1284C38.3949 11.4071 39.1367 11.5436 39.9038 11.4479C39.9812 11.4381 40.0544 11.393 40.2711 11.3128H40.2725Z" fill="white"/>
<path d="M14.3621 19.6096C14.69 19.2057 15.1446 19.0311 15.4768 18.7131C15.8132 18.3921 16.1918 18.1106 16.5071 17.6208C16.2917 17.6391 16.1623 17.618 16.0623 17.6631C15.3065 18.0051 14.5577 18.3612 13.8047 18.7102C13.5471 18.8299 13.3205 19.0326 12.9574 19.0551C12.9715 18.9242 12.963 18.8158 12.9968 18.7229C13.4374 17.5054 14.227 16.5948 15.405 16.043C16.5381 15.5124 17.7386 15.4322 18.9618 15.5729C19.1335 15.5926 19.2996 15.6701 19.4952 15.7292C19.4727 15.8657 19.4797 15.9825 19.4347 16.074C18.9111 17.1282 18.2735 18.0994 17.3685 18.8693C16.7731 19.3746 16.0989 19.7152 15.3079 19.7771C15.0025 19.801 14.6914 19.8039 14.3621 19.6096Z" fill="white"/>
<path d="M25.049 4.12442C24.6268 4.35947 24.2876 4.31865 23.9582 4.28909C22.631 4.17086 21.5571 3.58676 20.7506 2.51847C20.3114 1.93718 19.9933 1.29536 19.7583 0.609914C19.7006 0.441015 19.6344 0.267893 19.7667 0.0595844C19.8948 0.041287 20.0468 -0.00515994 20.1988 0.000470021C21.1953 0.0314348 22.1721 0.183443 23.0926 0.584578C23.7908 0.888596 24.365 1.34744 24.7324 2.03148C24.8886 2.32283 24.8844 2.32564 24.8506 2.74226C24.5367 2.74508 24.327 2.51002 24.0666 2.39883C23.8189 2.29327 23.581 2.16237 23.3305 2.06244C23.0659 1.95688 22.8013 1.83443 22.479 1.84147C22.4945 2.11452 22.6774 2.22571 22.8252 2.34535C23.3657 2.78589 23.916 3.21518 24.4607 3.65009C24.6324 3.78662 24.8027 3.92596 25.049 4.12582V4.12442Z" fill="white"/>
<path d="M19.2052 9.5245C19.0081 10.9531 18.6872 12.2466 17.7808 13.3219C17.3966 13.7779 16.9349 14.1312 16.3452 14.2804C16.158 14.3283 15.9567 14.4085 15.7526 14.2255C15.8427 13.944 16.0848 13.7568 16.234 13.5147C16.3747 13.2853 16.5366 13.0672 16.6703 12.8335C16.8096 12.5886 16.9785 12.3479 17.0095 11.9721C16.4184 12.2607 16.0228 12.6829 15.6034 13.07C15.1995 13.4429 14.8349 13.861 14.3254 14.3029C14.3001 14.0074 14.2621 13.8568 14.279 13.7132C14.4465 12.2916 15.0855 11.1544 16.3226 10.3887C17.0996 9.90874 17.9483 9.62443 18.8491 9.49353C18.9321 9.48086 19.0194 9.50761 19.2066 9.5245H19.2052Z" fill="white"/>
<path d="M28.7198 5.79082C28.3637 6.81829 27.6754 7.38691 26.6297 7.44603C26.2947 7.46433 25.9527 7.4418 25.6219 7.38973C25.2954 7.33765 25.0279 7.17438 24.9857 6.73665C25.1856 6.14128 25.6205 5.66274 26.1004 5.21656C26.5987 4.7535 27.2039 4.548 27.971 4.56208C27.8232 4.32984 27.7289 4.18628 27.6388 4.04131C27.0843 3.14333 27.1364 2.19468 27.4418 1.24181C27.5586 0.874455 27.9133 0.72667 28.2638 0.875864C29.5544 1.42619 30.2427 2.72108 29.7261 4.07368C29.7135 4.10746 29.6586 4.12717 29.591 4.17643C29.2701 3.74292 29.1814 3.11377 28.5509 2.87028C28.4805 2.97443 28.3609 3.07296 28.3524 3.17992C28.3271 3.49098 28.3398 3.80626 28.351 4.12013C28.3567 4.27355 28.3904 4.42696 28.413 4.58741C27.9175 5.0364 27.1983 5.25175 27.0139 5.99772C27.3024 6.30174 27.6149 6.13565 27.9049 6.06528C28.1821 5.99772 28.4481 5.88512 28.7198 5.79223V5.79082Z" fill="white"/>
<path d="M30.9069 5.72577C30.9238 5.82288 30.921 5.85103 30.9323 5.86511C31.6515 6.63641 31.6599 7.56958 31.5319 8.52949C31.5079 8.70542 31.4587 8.88417 31.3897 9.04885C31.2504 9.37679 30.9365 9.53021 30.6156 9.40354C29.8429 9.09952 29.0687 8.36903 28.9801 7.41757C28.9393 6.97562 28.928 6.52804 29.1856 6.05512C29.598 6.51115 29.6472 7.21067 30.3186 7.39786C30.7408 6.8405 30.4495 6.26202 30.4157 5.66806C30.9097 5.23315 31.636 4.9995 31.8499 4.28027C31.7458 4.079 31.5811 4.06633 31.4277 4.10011C31.0998 4.1719 30.776 4.26901 30.4523 4.35909C30.3313 4.39287 30.2116 4.43369 29.978 4.50688C30.1061 4.25353 30.1624 4.08885 30.2609 3.95514C31.0406 2.88123 31.9077 2.62506 33.294 2.88686C33.8148 2.98538 33.9724 3.39778 33.7092 3.86225C33.4306 4.35487 33.0914 4.80245 32.6297 5.14447C32.206 5.45975 31.75 5.68777 31.2053 5.68636C31.1181 5.68636 31.0294 5.70747 30.9097 5.72436L30.9069 5.72577Z" fill="white"/>
<path d="M38.1669 13.0939C36.4062 13.6175 33.7136 12.6618 32.271 10.3493C32.2161 9.75956 32.3554 8.60682 32.5525 8.13672C32.6679 8.16909 32.8058 8.17613 32.9072 8.24088C33.511 8.62231 34.0036 9.12478 34.2527 9.79615C34.5244 10.528 35.0128 11.0727 35.6236 11.5063C36.226 11.9355 36.8735 12.3043 37.5012 12.697C37.6856 12.8124 37.8756 12.9208 38.1669 13.0939Z" fill="white"/>
<path d="M41.4084 13.517C43.0608 13.1061 45.1467 15.1582 44.8989 16.8908C44.8595 16.9091 44.8187 16.9457 44.7793 16.9429C43.9348 16.888 43.1396 16.6628 42.4147 16.2251C41.8982 15.9126 41.5125 15.4847 41.3436 14.8893C41.3211 14.8091 41.331 14.719 41.3197 14.5614C41.483 14.6191 41.6096 14.6374 41.7039 14.7036C42.0713 14.9583 42.4415 15.2046 42.8567 15.3412C43.0115 15.1962 42.9144 15.0977 42.8454 15.0259C42.471 14.6374 42.0854 14.2602 41.7082 13.8745C41.6054 13.769 41.5168 13.6479 41.4084 13.517Z" fill="white"/>
<path d="M31.5616 27.9619C31.4307 28.0844 31.2913 28.197 31.1717 28.3293C30.4862 29.0908 29.6783 29.6918 28.7832 30.1844C27.4503 30.9149 26.0301 31.4075 24.5593 31.7678C23.1574 32.1112 21.7837 32.5377 20.4677 33.1359C19.125 33.7453 17.885 34.5082 16.8519 35.5793C15.602 36.8728 14.8926 38.4168 14.6871 40.2001C14.6646 40.3943 14.6252 40.5885 14.59 40.8039C14.2016 40.8264 13.9609 40.597 13.6878 40.4675C13.426 40.3436 13.1783 40.1902 12.9419 40.0607C12.8096 39.6413 12.8645 39.2557 12.9081 38.8813C13.0601 37.5765 13.381 36.3168 13.9721 35.1345C14.8166 33.4498 16.0834 32.2224 17.8807 31.613C19.3291 31.1218 20.7971 30.6868 22.2594 30.2365C23.5937 29.8255 24.9224 29.4004 26.206 28.8473C27.4714 28.3026 28.6846 27.6664 29.7501 26.7768C31.0774 25.6691 31.9599 24.3011 32.254 22.5797C32.2808 22.4249 32.3188 22.2715 32.3596 22.1195C32.3694 22.0829 32.4145 22.0575 32.4426 22.0266C32.7875 22.3995 32.9578 22.8359 33.107 24.0139C33.1928 24.6923 33.1942 25.382 33.2421 26.1885C33.4631 25.7409 33.5292 25.3722 33.5658 24.9978C33.6756 23.8633 33.5926 22.7444 33.1956 21.6691C32.1062 18.7147 30.6734 15.9462 28.6818 13.4887C28.1836 12.8737 27.6079 12.343 26.9816 11.856C26.451 11.4422 25.9443 10.9918 25.4685 10.5161C24.9717 10.0179 24.6226 9.40982 24.3735 8.7483C24.313 8.58644 24.2201 8.43724 24.1399 8.2796C24.0371 8.30634 23.9611 8.30494 23.9132 8.34153C23.4192 8.71311 23.0378 9.18884 22.7605 9.73213C22.655 9.93763 22.6564 10.2121 22.655 10.4556C22.6465 11.469 22.655 12.481 22.6564 13.4944C22.6564 13.7196 22.6507 13.9448 22.6493 14.1699C22.6437 14.9511 22.5226 15.6971 21.9329 16.3417C22.0511 16.3994 22.1187 16.4459 22.1933 16.4684C22.5156 16.5641 22.6775 16.8048 22.7155 17.1102C22.7521 17.3973 22.7394 17.6915 22.7253 17.9814C22.7113 18.27 22.6198 18.5599 22.7493 18.8499C23.0223 19.1257 23.5051 19.0117 23.7331 19.3509C23.7823 19.6789 23.4122 19.6409 23.3235 19.8801C23.3559 19.9378 23.3812 20.0321 23.4431 20.0856C23.8541 20.4431 23.933 20.9259 23.9667 21.4284C23.9822 21.6705 24.0019 21.914 24.0202 22.1645C24.1708 22.2095 24.2736 22.263 24.3791 22.2687C25.0322 22.301 25.6811 22.2884 26.3257 22.142C27.8767 21.7887 28.9971 20.8978 29.7065 19.4832C30.0218 18.8555 30.2202 18.1883 30.3286 17.493C30.3525 17.3438 30.399 17.1989 30.444 17.0159C30.5355 17.068 30.6101 17.0835 30.634 17.1271C30.9366 17.6929 31.0971 18.3023 31.0985 18.9399C31.1013 19.7605 30.8212 20.4952 30.254 21.0878C29.9134 21.4425 29.5334 21.769 29.1322 22.0519C28.3553 22.6008 27.4911 22.9907 26.6016 23.3144C25.8725 23.5804 25.1195 23.6973 24.3468 23.5185C23.8147 23.396 23.3122 23.2131 22.9252 22.757C22.9041 22.5938 22.8745 22.4164 22.8604 22.2391C22.8112 21.6296 22.7676 21.0202 22.2566 20.567C22.3256 20.2827 22.3875 20.0251 22.4466 19.7844C22.3932 19.4748 22.0948 19.4382 21.8963 19.2313C21.9146 19.0863 21.9315 18.9118 21.9597 18.7387C22.0624 18.1123 21.8386 17.638 21.2981 17.3087C21.125 17.2031 20.9491 17.1018 20.7844 16.9863C20.714 16.9371 20.6662 16.8554 20.6338 16.8188C20.5606 16.581 20.6521 16.4262 20.7633 16.2798C21.7105 15.0384 21.8766 13.607 21.7668 12.1122C21.7176 11.4394 21.6472 10.768 21.5951 10.0939C21.5205 9.11565 21.7612 8.22049 22.3298 7.4154C22.8816 6.63565 23.567 5.98821 24.3341 5.42521C24.3819 5.39002 24.4565 5.39002 24.5522 5.36328C24.5522 5.47307 24.5621 5.55892 24.5494 5.64197C24.534 5.75316 24.4988 5.86153 24.4748 5.97132C24.1764 7.37177 24.852 8.1473 26.1723 8.33872C26.6776 8.41191 27.204 8.34435 27.7205 8.3345C27.8753 8.33168 28.0287 8.30212 28.1765 8.28523C28.4214 8.68355 28.6297 9.07906 28.8944 9.43375C29.1688 9.79969 29.5601 10.0446 29.9978 10.1811C30.4243 10.3134 30.8648 10.4035 31.3054 10.5133C31.3842 10.6315 31.4644 10.7385 31.532 10.8539C32.5918 12.6316 34.1922 13.6267 36.188 14.0109C36.7805 14.1249 37.3942 14.1348 37.9994 14.1714C38.3583 14.1939 38.7186 14.1756 39.1155 14.1756C39.276 14.3037 39.459 14.4332 39.6222 14.5852C41.6814 16.512 42.9298 18.8822 43.4619 21.6395C43.9235 24.0336 43.666 26.3912 43.0622 28.7248C42.1853 32.114 40.5371 35.067 38.0233 37.5188C36.5581 38.9488 34.8903 40.072 32.993 40.8644C31.1604 41.6301 29.2955 42.2803 27.3377 42.6421C25.2644 43.0249 23.1814 43.0953 21.0856 42.8799C20.5705 42.8265 20.0567 42.7702 19.5444 42.697C19.2812 42.6604 19.025 42.5844 18.7759 42.5281C18.6886 42.179 18.8646 41.958 19.0025 41.7371C19.6077 40.7659 20.4705 40.1058 21.5247 39.6849C22.4143 39.3288 23.3474 39.2008 24.2975 39.1599C25.8739 39.0924 27.4376 38.9207 28.9844 38.6068C29.691 38.4632 30.3891 38.2845 31.0323 37.9439C31.2209 37.8439 31.4405 37.7665 31.539 37.4738C31.3772 37.4541 31.2519 37.4245 31.128 37.4245C28.9211 37.4315 26.7142 37.4161 24.5086 37.4653C23.3601 37.4907 22.2257 37.6807 21.1419 38.1043C19.5528 38.7264 18.4029 39.8004 17.7217 41.3697C17.6429 41.5527 17.5542 41.73 17.4768 41.8947C16.9194 41.8848 15.785 41.5485 15.1755 41.2135C15.1854 41.0572 15.1727 40.8771 15.2107 40.7082C15.5077 39.3936 16.0397 38.1874 16.8955 37.1374C17.6344 36.2295 18.5395 35.5357 19.6274 35.1007C20.9434 34.5743 22.2693 34.0719 23.5881 33.5497C25.2011 32.9107 26.7944 32.2323 28.2793 31.323C29.0689 30.8389 29.8219 30.3054 30.4581 29.627C30.7494 29.316 31.014 28.9767 31.2561 28.6263C31.3927 28.4292 31.456 28.1815 31.5517 27.9563C31.5967 27.8662 31.6432 27.7762 31.6882 27.6875L31.691 27.6903C31.6474 27.7804 31.6024 27.8719 31.5587 27.9619H31.5616ZM27.9725 34.3843C28.0034 34.4448 28.009 34.473 28.0245 34.4814C28.0625 34.5026 28.1048 34.5251 28.1484 34.5307C29.2673 34.6672 30.3807 34.7376 31.5109 34.5786C33.5996 34.2858 35.3716 33.4005 36.8101 31.8663C38.2922 30.2843 39.193 28.3884 39.6997 26.2969C39.7419 26.1238 39.7658 25.9422 39.7714 25.7634C39.8221 24.2208 39.6574 22.7022 39.1733 21.2356C38.1739 18.2024 36.1472 16.1855 33.0971 15.2129C33.0056 15.1833 32.8902 15.1073 32.8128 15.2833C32.9733 15.4325 33.1393 15.5803 33.2998 15.7337C35.6419 17.973 37.1662 20.6177 37.4434 23.9098C37.6391 26.235 37.0142 28.2688 35.4406 30.0028C34.6172 30.9092 33.6643 31.658 32.6214 32.2956C31.3279 33.0866 29.9486 33.6876 28.5171 34.176C28.3342 34.2379 28.1568 34.3125 27.9739 34.3829L27.9725 34.3843Z" fill="white"/>
<path d="M23.5331 13.3932C23.64 13.5438 23.7245 13.6663 23.8132 13.7873C24.0313 14.0871 24.3297 14.1983 24.6928 14.1772C25.1109 14.1533 25.4754 13.9886 25.8188 13.769C26.1552 13.5537 26.4804 13.3186 26.8041 13.0977C26.935 13.2004 26.8562 13.282 26.8125 13.3482C26.4564 13.876 26.0356 14.3362 25.4515 14.6177C25.0123 14.8289 24.5591 14.9204 24.0848 14.7374C23.5528 14.5333 23.3445 14.0562 23.5345 13.3932H23.5331Z" fill="white"/>
<path d="M25.7922 11.5206C25.7148 11.5614 25.6768 11.6008 25.6402 11.598C24.8886 11.5544 24.137 11.5051 23.322 11.453C23.6739 10.9998 24.1524 10.9801 24.5902 10.9815C25.0378 10.9815 25.5149 11.0477 25.7922 11.5206Z" fill="white"/>
</svg>
