<svg width="1120" height="48" viewBox="0 0 1120 48" fill="none" xmlns="http://www.w3.org/2000/svg">
<line y1="11.75" x2="548" y2="11.75" stroke="url(#paint0_linear_1715_2589)" stroke-width="0.5" stroke-dasharray="3 3"/>
<path fill-rule="evenodd" clip-rule="evenodd" d="M572 12C572 18.6274 566.627 24 560 24C553.373 24 548 18.6274 548 12C548 5.37258 553.373 0 560 0C566.627 0 572 5.37258 572 12ZM560 18C559.448 18 559 17.5523 559 17V13H555C554.448 13 554 12.5523 554 12C554 11.4477 554.448 11 555 11H559V7C559 6.44771 559.448 6 560 6C560.552 6 561 6.44771 561 7V11H565C565.552 11 566 11.4477 566 12C566 12.5523 565.552 13 565 13H561V17C561 17.5523 560.552 18 560 18Z" fill="#14544B"/>
<line x1="1120" y1="12.25" x2="572" y2="12.25" stroke="url(#paint1_linear_1715_2589)" stroke-width="0.5" stroke-dasharray="3 3"/>
<path d="M514.005 45L513.014 42.1768H509.09L508.099 45H506.807L510.443 35.1357H511.66L515.297 45H514.005ZM511.031 36.6328L509.452 41.1309H512.651L511.072 36.6328H511.031ZM518.897 45.123C517.085 45.123 515.855 43.6738 515.855 41.4453C515.855 39.2168 517.079 37.7676 518.87 37.7676C519.888 37.7676 520.708 38.2666 521.132 39.0459H521.16V35.1357H522.349V45H521.214V43.7969H521.194C520.736 44.6172 519.922 45.123 518.897 45.123ZM519.122 38.8135C517.865 38.8135 517.072 39.8389 517.072 41.4453C517.072 43.0586 517.865 44.0771 519.122 44.0771C520.346 44.0771 521.166 43.0381 521.166 41.4453C521.166 39.8594 520.346 38.8135 519.122 38.8135ZM526.749 45.123C524.937 45.123 523.707 43.6738 523.707 41.4453C523.707 39.2168 524.93 37.7676 526.721 37.7676C527.74 37.7676 528.56 38.2666 528.984 39.0459H529.012V35.1357H530.201V45H529.066V43.7969H529.046C528.588 44.6172 527.774 45.123 526.749 45.123ZM526.974 38.8135C525.717 38.8135 524.924 39.8389 524.924 41.4453C524.924 43.0586 525.717 44.0771 526.974 44.0771C528.198 44.0771 529.018 43.0381 529.018 41.4453C529.018 39.8594 528.198 38.8135 526.974 38.8135ZM536.28 45H535.063V35.1357H536.259L541.66 42.8809H541.721V35.1357H542.938V45H541.742L536.341 37.2822H536.28V45ZM547.618 38.7998C546.504 38.7998 545.725 39.6543 545.649 40.8369H549.512C549.484 39.6475 548.739 38.7998 547.618 38.7998ZM549.484 42.9629H550.653C550.448 44.207 549.245 45.123 547.693 45.123C545.656 45.123 544.419 43.708 544.419 41.4727C544.419 39.2646 545.677 37.7676 547.639 37.7676C549.56 37.7676 550.742 39.1621 550.742 41.3154V41.7666H545.643V41.835C545.643 43.1953 546.442 44.0908 547.721 44.0908C548.623 44.0908 549.286 43.6328 549.484 42.9629ZM561.089 37.8906L559.107 45H557.897L556.29 39.4971H556.263L554.663 45H553.454L551.464 37.8906H552.647L554.069 43.6738H554.096L555.703 37.8906H556.851L558.464 43.6738H558.492L559.913 37.8906H561.089ZM571.735 45L570.743 42.1768H566.82L565.828 45H564.536L568.173 35.1357H569.39L573.027 45H571.735ZM568.761 36.6328L567.182 41.1309H570.381L568.802 36.6328H568.761ZM576.627 45.123C574.815 45.123 573.585 43.6738 573.585 41.4453C573.585 39.2168 574.808 37.7676 576.599 37.7676C577.618 37.7676 578.438 38.2666 578.862 39.0459H578.889V35.1357H580.079V45H578.944V43.7969H578.923C578.465 44.6172 577.652 45.123 576.627 45.123ZM576.852 38.8135C575.594 38.8135 574.801 39.8389 574.801 41.4453C574.801 43.0586 575.594 44.0771 576.852 44.0771C578.076 44.0771 578.896 43.0381 578.896 41.4453C578.896 39.8594 578.076 38.8135 576.852 38.8135ZM584.479 45.123C582.667 45.123 581.437 43.6738 581.437 41.4453C581.437 39.2168 582.66 37.7676 584.451 37.7676C585.47 37.7676 586.29 38.2666 586.714 39.0459H586.741V35.1357H587.931V45H586.796V43.7969H586.775C586.317 44.6172 585.504 45.123 584.479 45.123ZM584.704 38.8135C583.446 38.8135 582.653 39.8389 582.653 41.4453C582.653 43.0586 583.446 44.0771 584.704 44.0771C585.928 44.0771 586.748 43.0381 586.748 41.4453C586.748 39.8594 585.928 38.8135 584.704 38.8135ZM589.637 45V37.8906H590.758V39.0527H590.786C591.018 38.2666 591.674 37.7676 592.508 37.7676C592.713 37.7676 592.891 37.8018 592.987 37.8154V38.9707C592.891 38.9365 592.638 38.9023 592.351 38.9023C591.428 38.9023 590.827 39.5654 590.827 40.5703V45H589.637ZM596.566 38.7998C595.452 38.7998 594.673 39.6543 594.597 40.8369H598.46C598.432 39.6475 597.687 38.7998 596.566 38.7998ZM598.432 42.9629H599.601C599.396 44.207 598.193 45.123 596.641 45.123C594.604 45.123 593.367 43.708 593.367 41.4727C593.367 39.2646 594.625 37.7676 596.587 37.7676C598.508 37.7676 599.69 39.1621 599.69 41.3154V41.7666H594.591V41.835C594.591 43.1953 595.39 44.0908 596.669 44.0908C597.571 44.0908 598.234 43.6328 598.432 42.9629ZM600.87 39.8525C600.87 38.6357 601.957 37.7676 603.523 37.7676C604.992 37.7676 606.072 38.6426 606.127 39.8457H604.992C604.91 39.1621 604.357 38.7383 603.482 38.7383C602.613 38.7383 602.039 39.1689 602.039 39.791C602.039 40.2832 602.415 40.6113 603.222 40.8164L604.322 41.083C605.758 41.4453 606.278 41.9648 606.278 43.0107C606.278 44.248 605.109 45.123 603.447 45.123C601.889 45.123 600.802 44.2754 600.679 43.0176H601.868C601.998 43.7559 602.559 44.1523 603.523 44.1523C604.487 44.1523 605.081 43.7422 605.081 43.0996C605.081 42.5938 604.787 42.3203 603.988 42.1084L602.737 41.7871C601.486 41.4658 600.87 40.8232 600.87 39.8525ZM607.492 39.8525C607.492 38.6357 608.579 37.7676 610.144 37.7676C611.614 37.7676 612.694 38.6426 612.749 39.8457H611.614C611.532 39.1621 610.978 38.7383 610.103 38.7383C609.235 38.7383 608.661 39.1689 608.661 39.791C608.661 40.2832 609.037 40.6113 609.843 40.8164L610.944 41.083C612.379 41.4453 612.899 41.9648 612.899 43.0107C612.899 44.248 611.73 45.123 610.069 45.123C608.51 45.123 607.423 44.2754 607.3 43.0176H608.49C608.62 43.7559 609.18 44.1523 610.144 44.1523C611.108 44.1523 611.703 43.7422 611.703 43.0996C611.703 42.5938 611.409 42.3203 610.609 42.1084L609.358 41.7871C608.107 41.4658 607.492 40.8232 607.492 39.8525Z" fill="#14544B"/>
<defs>
<linearGradient id="paint0_linear_1715_2589" x1="555.117" y1="12" x2="0" y2="12" gradientUnits="userSpaceOnUse">
<stop/>
<stop offset="1" stop-color="#E6E6E6"/>
</linearGradient>
<linearGradient id="paint1_linear_1715_2589" x1="564.883" y1="12" x2="1120" y2="12" gradientUnits="userSpaceOnUse">
<stop/>
<stop offset="1" stop-color="#E6E6E6"/>
</linearGradient>
</defs>
</svg>
