<svg width="16" height="32" viewBox="0 0 16 32" fill="none" xmlns="http://www.w3.org/2000/svg">
<path d="M9.69513 7.63588C9.69513 7.96338 9.69513 9.03082 9.69513 10.5473H14.9091L14.3438 15.1953H9.69513C9.69513 22.3633 9.69513 31.9687 9.69513 31.9687H3.52476C3.52476 31.9687 3.52476 22.4904 3.52476 15.1953H0.30957V10.5473H3.52476C3.52476 8.70407 3.52476 7.39338 3.52476 7.02845C3.52476 5.2897 3.39376 4.4647 4.13257 3.11732C4.87176 1.77001 6.95676 -0.0108653 10.5629 0.0320097C14.17 0.0764472 15.6904 0.423447 15.6904 0.423447L14.9091 5.37701C14.9091 5.37701 12.6058 4.76882 11.4753 4.98557C10.3462 5.20238 9.69513 5.89788 9.69513 7.63588Z" fill="white"/>
</svg>
