<svg width="28" height="30" viewBox="0 0 28 30" fill="none" xmlns="http://www.w3.org/2000/svg">
<path d="M21.7672 5.71601C20.4485 4.18289 19.7576 2.20209 19.8127 0.185446L14.885 0.0664062C14.885 0.0664062 14.885 0.276646 14.885 0.560166V20.3205C14.9538 26.572 5.07668 26.4203 5.85812 19.5102C6.33588 16.7627 9.2882 15.0718 11.9116 16.0277V10.9998C6.2002 10.0053 0.787724 14.5512 0.844684 20.3426C1.34388 32.9026 19.3586 32.9042 19.8584 20.3426C19.7327 19.893 19.8031 11.523 19.7852 10.8171C22.0258 12.2114 24.6328 12.9083 27.2732 12.819V7.62641C24.8322 7.62641 22.9695 6.97745 21.7672 5.71601Z" fill="white"/>
</svg>
