<svg width="32" height="32" viewBox="0 0 32 32" fill="none" xmlns="http://www.w3.org/2000/svg">
<path fill-rule="evenodd" clip-rule="evenodd" d="M32 5.82385C30.8242 6.3593 29.5583 6.72141 28.2303 6.8832C29.5864 6.05113 30.627 4.73176 31.1172 3.16007C29.8475 3.93051 28.4445 4.49099 26.9456 4.79146C25.751 3.48365 24.0437 2.66699 22.1541 2.66699C18.531 2.66699 15.5915 5.68131 15.5915 9.39866C15.5915 9.92641 15.6478 10.4388 15.7605 10.9318C10.3042 10.6506 5.46763 7.97336 2.22762 3.89583C1.66226 4.89355 1.33919 6.05113 1.33919 7.28382C1.33919 9.61824 2.4981 11.6792 4.25991 12.8868C3.18554 12.8541 2.17127 12.5478 1.28473 12.047V12.1299C1.28473 15.3926 3.54804 18.1142 6.55326 18.7305C6.00293 18.8885 5.42255 18.9675 4.82338 18.9675C4.40077 18.9675 3.98755 18.927 3.58748 18.848C4.42331 21.5215 6.84627 23.4687 9.72001 23.5207C7.47361 25.3274 4.64119 26.4041 1.56647 26.4041C1.0368 26.4041 0.512766 26.3733 0 26.3116C2.90568 28.2184 6.35792 29.3337 10.0637 29.3337C22.141 29.3337 28.7431 19.0772 28.7431 10.1807C28.7431 9.88789 28.7374 9.59512 28.7262 9.30814C30.009 8.35857 31.1229 7.17404 32 5.82385Z" fill="white"/>
</svg>
